<svg width="26" height="26" viewBox="0 0 26 26" fill="none" xmlns="http://www.w3.org/2000/svg">
<path d="M18.2322 1.55862L24.8562 8.18262C25.1348 8.4612 25.3558 8.79192 25.5066 9.1559C25.6573 9.51988 25.7349 9.90999 25.7349 10.304C25.7349 10.6979 25.6573 11.088 25.5066 11.452C25.3558 11.816 25.1348 12.1467 24.8562 12.4253L13.2802 23.9986L21.4109 24C21.6525 24 21.886 24.0875 22.0681 24.2463C22.2503 24.4051 22.3687 24.6246 22.4016 24.864L22.4109 25C22.4109 25.2416 22.3234 25.4751 22.1645 25.6572C22.0057 25.8393 21.7863 25.9578 21.5469 25.9906L21.4109 26L10.1976 26.0013C9.7766 26.025 9.3554 25.9594 8.96155 25.8089C8.56771 25.6584 8.21012 25.4263 7.91223 25.128L1.2869 18.5026C1.00832 18.224 0.787335 17.8933 0.636568 17.5294C0.485802 17.1654 0.408203 16.7753 0.408203 16.3813C0.408203 15.9873 0.485802 15.5972 0.636568 15.2332C0.787335 14.8693 1.00832 14.5385 1.2869 14.26L13.9896 1.55862C14.2681 1.28004 14.5989 1.05906 14.9628 0.908297C15.3268 0.75753 15.7169 0.679932 16.1109 0.679932C16.5049 0.679932 16.895 0.75753 17.259 0.908297C17.6229 1.05906 17.9537 1.28004 18.2322 1.55862ZM4.6829 13.6906L2.70156 15.6746C2.5143 15.8621 2.40911 16.1163 2.40911 16.3813C2.40911 16.6463 2.5143 16.9005 2.70156 17.088L9.3269 23.7133C9.52156 23.908 9.77756 24.0066 10.0336 24.0066L10.0722 24L10.1229 24.0026C10.3563 23.9818 10.5749 23.8794 10.7402 23.7133L12.7216 21.7306L4.6829 13.6906ZM15.4029 2.97196L6.0989 12.276L14.1389 20.316L23.4442 11.012C23.5372 10.9191 23.6109 10.8088 23.6612 10.6875C23.7115 10.5661 23.7374 10.436 23.7374 10.3046C23.7374 10.1732 23.7115 10.0432 23.6612 9.92179C23.6109 9.80043 23.5372 9.69016 23.4442 9.59729L16.8189 2.97196C16.6314 2.78469 16.3772 2.6795 16.1122 2.6795C15.8472 2.6795 15.5931 2.78469 15.4056 2.97196" fill="white"/>
</svg>
