<svg width="363" height="320" viewBox="0 0 363 320" fill="none" xmlns="http://www.w3.org/2000/svg">
<path d="M327.893 175.678L319.406 206.435L329.807 213.852L353.196 219.549L362.467 184.824L327.893 175.678Z" fill="#EAEAEA"/>
<path d="M323.924 205.058L319.406 206.435C319.406 206.435 320.831 209.135 323.059 210.692C325.288 212.248 327.468 213.281 329.807 213.852C329.807 213.852 324.808 210.945 323.924 205.058Z" fill="#EAEAEA"/>
<path d="M355.71 194.785C355.694 194.842 349.797 193.335 342.538 191.419C335.277 189.502 329.405 187.903 329.42 187.845C329.435 187.788 335.332 189.295 342.593 191.212C349.851 193.128 355.725 194.728 355.71 194.785Z" fill="#EAEAEA"/>
<path d="M354.342 199.496C354.326 199.553 348.429 198.046 341.17 196.13C333.909 194.213 328.037 192.613 328.053 192.556C328.068 192.498 333.964 194.005 341.225 195.922C348.483 197.838 354.357 199.438 354.342 199.496Z" fill="#EAEAEA"/>
<path d="M353.379 203.737C353.364 203.795 347.467 202.288 340.208 200.372C332.947 198.454 327.075 196.855 327.09 196.797C327.105 196.74 333.002 198.247 340.263 200.164C347.521 202.08 353.395 203.68 353.379 203.737Z" fill="#EAEAEA"/>
<path d="M352.286 207.777C352.271 207.834 346.373 206.327 339.115 204.411C331.853 202.494 325.981 200.894 325.996 200.836C326.012 200.78 331.908 202.286 339.169 204.203C346.427 206.12 352.301 207.719 352.286 207.777Z" fill="#EAEAEA"/>
<path d="M281.801 21.2656L274.274 11.5395L272.2 23.7217L281.801 21.2656ZM283.041 22.795L271.824 25.6642L271.28 29.0964C271.106 30.2392 271.105 31.1459 271.277 31.8173C271.504 32.7063 272.031 33.2707 272.857 33.5083C273.343 33.6507 274.428 33.5717 276.115 33.2737L276.337 34.1405L265.776 36.8416L265.555 35.9754C266.65 35.5121 267.466 34.8001 268.002 33.8395C268.538 32.879 269.035 31.0515 269.494 28.3557L274.37 0.113613L274.815 -7.62939e-06L292.927 23.1108C294.65 25.2983 295.945 26.6219 296.811 27.0815C297.466 27.4305 298.287 27.5198 299.275 27.3501L299.497 28.2162L284.136 32.1456L283.913 31.2795L284.546 31.1179C285.778 30.8021 286.601 30.4089 287.013 29.9374C287.292 29.6003 287.372 29.1967 287.253 28.7282C287.18 28.4479 287.06 28.1705 286.89 27.8975C286.823 27.7654 286.44 27.2394 285.739 26.3216L283.041 22.795Z" fill="#EAEAEA"/>
<path d="M347.276 144.388L315.153 143.447C311.518 143.34 308.658 140.307 308.765 136.672L309.587 108.623C309.693 104.988 312.726 102.128 316.362 102.234L348.484 103.176C352.119 103.283 354.979 106.316 354.873 109.951L354.05 138C353.944 141.635 350.911 144.495 347.276 144.388Z" fill="#EAEAEA"/>
<path d="M308.869 133.089L324.164 122.826C325.352 121.875 327.059 121.939 328.173 122.978L335.707 126.846L346.458 116.335C347.812 115.127 349.903 115.305 351.033 116.724L354.545 121.132L354.375 139.198C354.348 142.098 351.94 144.409 349.041 144.318L313.699 143.2C310.835 143.11 308.589 140.706 308.695 137.842L308.869 133.089Z" fill="#EAEAEA"/>
<path d="M330.744 113.322C330.858 115.821 328.925 117.939 326.427 118.053C323.929 118.167 321.811 116.235 321.696 113.736C321.582 111.238 323.515 109.12 326.013 109.006C328.511 108.891 330.629 110.824 330.744 113.322Z" fill="#EAEAEA"/>
<path d="M75.2014 25.8915H37.7784C35.9679 25.8915 34.5241 24.3776 34.6112 22.5685L35.3703 6.71374C35.4515 5.0235 36.8459 3.69401 38.5383 3.69401H75.9606C77.7718 3.69401 79.2149 5.20793 79.1286 7.01696L78.3694 22.8718C78.2882 24.5627 76.8938 25.8915 75.2014 25.8915Z" fill="#FFEEE2"/>
<path d="M191.623 26.0198L193.225 16.0001L200.051 12.0338L205.656 18.043L203.966 28.3187L191.623 26.0198Z" fill="#FF6600"/>
<path d="M223.18 36.6033L214.897 218.405L81.3223 214.61L73.375 200.727L87.741 31.7635L212.052 23.5351L223.18 36.6033Z" fill="#EAEAEA"/>
<path d="M214.898 218.405L203.77 205.337L212.053 23.5351L223.18 36.6033L214.898 218.405Z" fill="#AAAAAA"/>
<path d="M212.051 23.5349L203.769 205.337L73.375 200.727L83.2391 21.6971L212.051 23.5349Z" fill="#FAFAF9"/>
<path d="M98.2471 65.5343L143.783 66.869C144.739 66.897 145.537 66.1452 145.565 65.1891L145.615 63.4826C145.643 62.5265 144.891 61.7289 143.935 61.7009L98.3991 60.3662C97.4429 60.3382 96.6454 61.09 96.6173 62.0461L96.5672 63.7526C96.5391 64.7088 97.2917 65.5063 98.2471 65.5343Z" fill="#EAEAEA"/>
<path d="M97.8096 75.5283L143.346 76.8629C144.301 76.8909 145.1 76.1391 145.128 75.183L145.177 73.4765C145.206 72.5203 144.453 71.7228 143.497 71.6948L97.9616 70.3601C97.0054 70.3321 96.2079 71.0839 96.1798 72.0401L96.1297 73.7465C96.1016 74.7027 96.8542 75.5002 97.8096 75.5283Z" fill="#EAEAEA"/>
<path d="M97.3682 85.5222L142.904 86.8568C143.86 86.8848 144.658 86.1323 144.686 85.1769L144.736 83.4704C144.764 82.5142 144.012 81.7167 143.056 81.6887L97.5202 80.3533C96.564 80.3253 95.7665 81.0778 95.7384 82.034L95.6883 83.7404C95.6602 84.6958 96.4128 85.4941 97.3682 85.5222Z" fill="#EAEAEA"/>
<path d="M96.9287 95.5153L142.465 96.8507C143.42 96.8787 144.219 96.1262 144.247 95.1708L144.296 93.4636C144.324 92.5081 143.572 91.7106 142.616 91.6826L97.0807 90.3472C96.1245 90.3192 95.327 91.0717 95.299 92.0271L95.2488 93.7343C95.2208 94.6897 95.9733 95.4873 96.9287 95.5153Z" fill="#EAEAEA"/>
<path d="M96.4912 105.509L142.027 106.845C142.983 106.873 143.78 106.12 143.808 105.165L143.859 103.458C143.887 102.502 143.135 101.705 142.179 101.677L96.6432 100.341C95.687 100.313 94.8895 101.066 94.8615 102.021L94.8113 103.728C94.7833 104.684 95.5358 105.481 96.4912 105.509Z" fill="#EAEAEA"/>
<path d="M96.0518 115.503L141.588 116.839C142.543 116.867 143.341 116.114 143.369 115.158L143.419 113.451C143.447 112.496 142.695 111.698 141.739 111.67L96.2038 110.335C95.2476 110.307 94.4501 111.06 94.422 112.015L94.3719 113.721C94.3438 114.678 95.0956 115.475 96.0518 115.503Z" fill="#EAEAEA"/>
<path d="M95.6143 125.497L141.151 126.832C142.106 126.861 142.903 126.108 142.932 125.152L142.982 123.445C143.01 122.489 142.258 121.692 141.302 121.664L95.7655 120.329C94.8101 120.301 94.0126 121.053 93.9845 122.009L93.9344 123.715C93.9063 124.672 94.6581 125.469 95.6143 125.497Z" fill="#EAEAEA"/>
<path d="M150.06 116.998L195.595 118.333C196.551 118.361 197.349 117.609 197.377 116.653L197.427 114.946C197.455 113.991 196.703 113.193 195.747 113.165L150.211 111.83C149.255 111.802 148.457 112.554 148.429 113.51L148.38 115.217C148.352 116.172 149.103 116.97 150.06 116.998Z" fill="#EAEAEA"/>
<path d="M149.618 126.992L195.154 128.327C196.11 128.355 196.907 127.603 196.935 126.646L196.986 124.94C197.014 123.985 196.261 123.186 195.306 123.158L149.769 121.824C148.813 121.796 148.016 122.548 147.988 123.504L147.938 125.21C147.91 126.166 148.662 126.964 149.618 126.992Z" fill="#EAEAEA"/>
<path d="M149.091 137.53L194.627 138.866C195.583 138.894 196.381 138.141 196.409 137.186L196.459 135.479C196.487 134.523 195.734 133.726 194.779 133.698L149.243 132.362C148.287 132.334 147.489 133.087 147.461 134.042L147.411 135.749C147.383 136.705 148.135 137.502 149.091 137.53Z" fill="#EAEAEA"/>
<path d="M148.56 148.069L194.096 149.404C195.051 149.432 195.85 148.68 195.878 147.724L195.927 146.018C195.956 145.061 195.203 144.264 194.247 144.236L148.712 142.901C147.755 142.873 146.958 143.625 146.93 144.581L146.88 146.288C146.852 147.243 147.604 148.041 148.56 148.069Z" fill="#EAEAEA"/>
<path d="M148.03 158.608L193.567 159.942C194.522 159.97 195.319 159.219 195.348 158.262L195.398 156.556C195.426 155.6 194.674 154.802 193.718 154.774L148.182 153.44C147.226 153.412 146.429 154.163 146.401 155.12L146.35 156.826C146.322 157.782 147.075 158.58 148.03 158.608Z" fill="#EAEAEA"/>
<path d="M147.501 169.146L193.037 170.481C193.993 170.509 194.79 169.757 194.818 168.801L194.868 167.094C194.896 166.138 194.145 165.341 193.188 165.313L147.652 163.978C146.697 163.95 145.899 164.702 145.871 165.658L145.821 167.364C145.793 168.32 146.545 169.118 147.501 169.146Z" fill="#EAEAEA"/>
<path d="M146.97 179.685L192.505 181.02C193.461 181.048 194.259 180.295 194.287 179.339L194.337 177.633C194.365 176.677 193.613 175.879 192.657 175.851L147.121 174.516C146.166 174.488 145.367 175.241 145.339 176.196L145.29 177.903C145.262 178.859 146.014 179.657 146.97 179.685Z" fill="#EAEAEA"/>
<path d="M91.1416 187.541L191.64 190.487C192.595 190.515 193.393 189.763 193.421 188.807L193.471 187.101C193.499 186.144 192.747 185.347 191.791 185.319L91.2929 182.372C90.3374 182.344 89.5399 183.097 89.5119 184.053L89.4617 185.759C89.4337 186.715 90.1855 187.513 91.1416 187.541Z" fill="#EAEAEA"/>
<path d="M99.0322 52.5215L129.741 53.4216C130.696 53.4496 131.494 52.6971 131.522 51.7417L131.572 50.0345C131.6 49.0791 130.848 48.2815 129.892 48.2535L99.1835 47.3534C98.228 47.3254 97.4305 48.0772 97.4025 49.0333L97.3523 50.7398C97.3243 51.6959 98.0761 52.4935 99.0322 52.5215Z" fill="#EAEAEA"/>
<path d="M80.582 204.826C80.582 204.826 80.796 204.846 81.2165 204.866C81.6459 204.885 82.2693 204.911 83.0853 204.946C84.7387 205.008 87.1652 205.1 90.2993 205.218C96.5895 205.44 105.711 205.762 117.078 206.163C139.831 206.931 171.567 208.003 207.534 209.218L207.727 209.225L207.737 209.031C208.078 201.841 208.436 194.304 208.8 186.63C210.731 145.398 212.479 108.075 213.744 81.0506C214.357 67.5463 214.853 56.6176 215.197 49.054C215.359 45.2825 215.485 42.352 215.571 40.3541C215.61 39.3655 215.639 38.61 215.658 38.0906C215.676 37.5808 215.675 37.3189 215.675 37.3189C215.675 37.3189 215.649 37.5793 215.618 38.0891C215.589 38.6078 215.547 39.3625 215.492 40.3497C215.388 42.3476 215.237 45.2766 215.042 49.0466C214.669 56.6088 214.13 67.536 213.464 81.0373C212.168 108.061 210.38 145.381 208.403 186.611C208.041 194.284 207.685 201.823 207.344 209.013L207.547 208.825C171.578 207.663 139.841 206.638 117.086 205.903C105.718 205.552 96.5955 205.271 90.3044 205.077C87.1689 204.989 84.7416 204.92 83.0875 204.873C82.2715 204.854 81.6474 204.839 81.218 204.829C80.7975 204.821 80.582 204.826 80.582 204.826Z" fill="#2F2E41"/>
<path d="M91.1758 210.269C91.1758 210.269 91.3779 210.288 91.7748 210.309C92.1806 210.327 92.7686 210.355 93.5381 210.389C95.1 210.454 97.3915 210.547 100.353 210.668C106.298 210.895 114.924 211.225 125.69 211.636C147.244 212.426 177.359 213.532 211.646 214.789L211.838 214.796L211.848 214.604C212.305 205.93 212.782 196.907 213.269 187.688C215.389 147.003 217.308 110.177 218.698 83.5104C219.373 70.1862 219.92 59.4021 220.298 51.9388C220.478 48.2174 220.618 45.3261 220.713 43.354C220.756 42.3787 220.788 41.6335 220.81 41.1208C220.83 40.6176 220.83 40.3594 220.83 40.3594C220.83 40.3594 220.803 40.6161 220.77 41.1186C220.739 41.6306 220.693 42.3757 220.633 43.3496C220.52 45.3209 220.356 48.2108 220.143 51.9307C219.735 59.3925 219.146 70.1744 218.418 83.4957C216.998 110.16 215.037 146.985 212.872 187.667C212.387 196.887 211.914 205.909 211.458 214.584L211.66 214.398C177.371 213.194 147.254 212.137 125.699 211.381C114.931 211.019 106.304 210.73 100.358 210.53C97.396 210.438 95.1037 210.367 93.5403 210.319C92.7708 210.299 92.1821 210.283 91.7756 210.273C91.3787 210.265 91.1758 210.269 91.1758 210.269Z" fill="#2F2E41"/>
<path d="M134.352 21.2133L136.321 19.2862L159.802 19.4013L160.94 21.5482L134.352 21.2133Z" fill="#FFA66C"/>
<path d="M160.8 32.7358L160.941 21.5482L134.352 21.2132L134.211 32.4009L160.8 32.7358Z" fill="#FFEEE2"/>
<path d="M161.696 33.1092L161.701 32.7233C161.707 32.2135 161.299 31.7944 160.789 31.7878L134.202 31.4528C133.692 31.4469 133.273 31.8549 133.266 32.3655L133.262 32.7513C133.255 33.2611 133.663 33.6802 134.174 33.6868L160.761 34.0218C161.271 34.0277 161.69 33.6197 161.696 33.1092Z" fill="#FFA66C"/>
<path d="M147.825 8.84661L147.682 8.84884C144.808 8.92188 142.414 11.4163 142.454 14.2958C142.48 16.051 143.369 17.6874 144.832 18.6723L145.072 18.8346L141.428 28.6352C141.394 28.726 141.407 28.8234 141.461 28.9038C141.515 28.9835 141.602 29.0299 141.7 29.0314L153.394 29.179C153.498 29.179 153.578 29.1362 153.635 29.0587C153.692 28.9813 153.706 28.8839 153.677 28.7931L150.423 18.921L150.668 18.7675C152.228 17.7914 153.171 16.1152 153.194 14.284C153.213 12.8114 152.646 11.4303 151.597 10.3952C150.583 9.39331 149.247 8.84661 147.825 8.84661ZM153.398 29.9167H153.385L141.691 29.7692C141.355 29.7648 141.042 29.5973 140.853 29.3206C140.663 29.0447 140.62 28.6921 140.736 28.3785L144.181 19.115C142.66 17.9825 141.745 16.2059 141.717 14.3069C141.669 10.9751 144.337 8.19591 147.663 8.11106C149.328 8.06237 150.923 8.69244 152.115 9.86919C153.308 11.0474 153.953 12.6181 153.932 14.2936C153.908 16.2797 152.93 18.105 151.303 19.233L154.378 28.5622C154.481 28.8787 154.426 29.2269 154.229 29.4955C154.035 29.7596 153.725 29.9167 153.398 29.9167Z" fill="#2F2E41"/>
<path d="M131.588 175.264L99.4662 174.322C95.8312 174.216 92.9708 171.182 93.0771 167.548L93.8997 139.499C94.0059 135.864 97.0389 133.003 100.674 133.109L132.797 134.052C136.432 134.158 139.292 137.191 139.185 140.826L138.363 168.875C138.256 172.51 135.223 175.371 131.588 175.264Z" fill="#EAEAEA"/>
<path d="M93.1609 164.528C93.1741 164.174 93.3564 163.847 93.6507 163.65L108.476 153.701C109.634 152.776 111.282 152.812 112.395 153.773C112.456 153.825 112.521 153.872 112.592 153.908L119.311 157.358C119.735 157.576 120.25 157.497 120.59 157.165L130.77 147.211C132.124 146.002 134.215 146.18 135.346 147.599L138.612 151.701C138.771 151.899 138.856 152.146 138.854 152.4L138.699 168.965C138.665 172.473 135.753 175.269 132.245 175.158L99.1007 174.11C95.6354 174.001 92.9203 171.093 93.0472 167.628L93.1609 164.528Z" fill="#EAEAEA"/>
<path d="M115.056 144.197C115.17 146.696 113.238 148.814 110.739 148.928C108.241 149.042 106.123 147.11 106.009 144.611C105.894 142.113 107.827 139.995 110.325 139.881C112.824 139.767 114.942 141.699 115.056 144.197Z" fill="#EAEAEA"/>
<path d="M190.108 105.484L157.986 104.542C154.351 104.436 151.49 101.403 151.597 97.7678L152.419 69.7183C152.525 66.0833 155.559 63.2229 159.194 63.3299L191.316 64.2713C194.951 64.3775 197.812 67.4113 197.705 71.0463L196.883 99.0951C196.777 102.73 193.743 105.59 190.108 105.484Z" fill="#EAEAEA"/>
<path d="M151.702 94.1845L166.996 83.9213C168.185 82.9703 169.892 83.0352 171.005 84.0732L178.54 87.9421L189.291 77.4303C190.645 76.2226 192.735 76.4004 193.866 77.8191L197.377 82.2281L197.228 98.0843C197.19 102.197 193.776 105.473 189.665 105.343L158.702 104.364C154.64 104.236 151.458 100.828 151.607 96.7674L151.702 94.1845Z" fill="#EAEAEA"/>
<path d="M173.576 74.418C173.69 76.9161 171.757 79.0343 169.259 79.1486C166.761 79.263 164.643 77.33 164.528 74.8319C164.414 72.3338 166.346 70.2156 168.845 70.1013C171.343 69.9869 173.461 71.9192 173.576 74.418Z" fill="#EAEAEA"/>
<path d="M100.038 87.3711C100.038 87.3711 99.8199 87.3615 99.4421 87.2043C99.0725 87.0428 98.5413 86.7063 98.0913 86.0637C97.6545 85.4337 97.276 84.4738 97.4324 83.3568C97.5704 82.2509 98.1872 81.0601 99.2238 80.1246C100.26 79.1781 101.69 78.5392 103.257 78.1408C104.829 77.7498 106.55 77.4989 108.371 77.4805C112.002 77.4325 116.057 78.2692 119.728 80.36C120.638 80.8942 121.491 81.5471 122.134 82.38C122.772 83.2108 123.185 84.2163 123.215 85.2507C123.257 86.2895 122.816 87.2966 122.137 88.0063C121.457 88.7271 120.594 89.1853 119.738 89.5121C118.004 90.1621 116.246 90.2632 114.643 90.3355C113.028 90.3901 111.522 90.3082 110.16 90.1422C107.432 89.8065 105.294 89.1499 103.86 88.6216C103.141 88.3568 102.593 88.1244 102.229 87.9517C101.864 87.7813 101.675 87.6861 101.681 87.6743C101.686 87.6625 101.886 87.7333 102.26 87.8802C102.632 88.0299 103.187 88.2387 103.909 88.4807C105.352 88.9632 107.485 89.5741 110.192 89.8721C111.543 90.0197 113.034 90.0846 114.631 90.0175C116.221 89.9326 117.951 89.8161 119.613 89.1808C120.434 88.8629 121.249 88.4202 121.869 87.7555C122.488 87.1011 122.878 86.2002 122.838 85.261C122.81 84.3233 122.428 83.3871 121.831 82.6139C121.229 81.8348 120.417 81.2099 119.533 80.6913C115.94 78.6439 111.947 77.8051 108.375 77.8339C106.582 77.8427 104.884 78.0788 103.335 78.4499C101.795 78.8276 100.408 79.4341 99.4053 80.3268C98.4004 81.2114 97.7954 82.3395 97.6457 83.3856C97.4767 84.4392 97.8131 85.3599 98.2152 85.9796C98.6284 86.6097 99.1257 86.955 99.4754 87.1343C99.8324 87.3098 100.043 87.3497 100.038 87.3711Z" fill="#2F2E41"/>
<path d="M119.105 190.435C119.105 190.435 118.888 190.426 118.511 190.269C118.14 190.107 117.609 189.771 117.16 189.128C116.722 188.498 116.344 187.538 116.501 186.421C116.638 185.315 117.256 184.125 118.291 183.189C119.328 182.242 120.759 181.603 122.325 181.205C123.896 180.814 125.618 180.563 127.44 180.545C131.07 180.497 135.125 181.333 138.796 183.424C139.705 183.958 140.559 184.611 141.202 185.444C141.84 186.275 142.253 187.281 142.282 188.315C142.325 189.354 141.884 190.361 141.205 191.071C140.524 191.791 139.662 192.249 138.806 192.576C137.072 193.226 135.314 193.327 133.711 193.4C132.096 193.454 130.59 193.372 129.227 193.206C126.5 192.871 124.362 192.214 122.928 191.686C122.209 191.421 121.662 191.189 121.297 191.016C120.932 190.845 120.743 190.75 120.749 190.739C120.754 190.727 120.953 190.798 121.327 190.944C121.7 191.094 122.255 191.303 122.977 191.545C124.419 192.027 126.553 192.638 129.259 192.936C130.611 193.084 132.102 193.149 133.698 193.082C135.288 192.997 137.019 192.88 138.681 192.245C139.502 191.927 140.316 191.484 140.937 190.82C141.556 190.165 141.946 189.264 141.906 188.325C141.878 187.388 141.496 186.451 140.899 185.678C140.297 184.899 139.485 184.274 138.601 183.755C135.007 181.708 131.015 180.869 127.444 180.898C125.651 180.907 123.952 181.143 122.404 181.514C120.863 181.892 119.476 182.498 118.473 183.391C117.468 184.276 116.863 185.404 116.713 186.45C116.544 187.504 116.882 188.424 117.284 189.044C117.696 189.674 118.193 190.019 118.543 190.198C118.9 190.374 119.111 190.414 119.105 190.435Z" fill="#2F2E41"/>
<path d="M96.9724 53.6185C96.9724 53.6185 96.7547 53.6089 96.3777 53.4518C96.0081 53.2902 95.4762 52.9538 95.0269 52.3112C94.5894 51.6811 94.2116 50.7213 94.368 49.6043C94.5053 48.4984 95.1228 47.3076 96.1586 46.3721C97.1952 45.4255 98.6257 44.7866 100.193 44.3882C101.764 43.9972 103.485 43.7463 105.307 43.7279C108.938 43.6799 112.992 44.5166 116.663 46.6074C117.573 47.1416 118.426 47.7945 119.069 48.6275C119.708 49.4582 120.12 50.4638 120.15 51.4981C120.192 52.5369 119.751 53.544 119.072 54.2545C118.392 54.9746 117.529 55.4327 116.674 55.7595C114.939 56.4095 113.182 56.5106 111.578 56.5829C109.963 56.6375 108.457 56.5556 107.095 56.3896C104.367 56.0539 102.229 55.3973 100.795 54.8698C100.076 54.6042 99.5288 54.3718 99.1643 54.1992C98.7991 54.0287 98.6102 53.9336 98.6161 53.9217C98.6213 53.9092 98.8205 53.9808 99.1946 54.1276C99.5679 54.2766 100.123 54.4861 100.845 54.7281C102.287 55.2106 104.42 55.8215 107.126 56.1196C108.478 56.2671 109.97 56.3321 111.566 56.2649C113.155 56.1801 114.886 56.0635 116.548 55.4283C117.37 55.1103 118.183 54.6676 118.804 54.0029C119.424 53.3485 119.813 52.4477 119.773 51.5085C119.745 50.5708 119.363 49.6345 118.767 48.8606C118.164 48.0822 117.352 47.4574 116.468 46.9387C112.874 44.8914 108.882 44.0525 105.311 44.082C103.518 44.0901 101.819 44.3262 100.271 44.6973C98.7298 45.0751 97.3427 45.6815 96.3401 46.5742C95.336 47.4588 94.7303 48.5869 94.5805 49.633C94.4116 50.6866 94.7487 51.6073 95.1508 52.2271C95.564 52.8571 96.0612 53.2024 96.4109 53.3824C96.7673 53.5573 96.9783 53.5971 96.9724 53.6185Z" fill="#2F2E41"/>
<path d="M210.179 157.135L220.323 157.388L225.163 163.625L219.954 169.98L209.545 169.674L210.179 157.135Z" fill="#FFA66C"/>
<path d="M211.14 139.342L221.284 139.595L226.124 145.832L220.914 152.187L210.506 151.881L211.14 139.342Z" fill="#2F2E41"/>
<path d="M72.9121 11.4082H40.8248C40.6145 11.4082 40.4434 11.5787 40.4434 11.7889V11.9483C40.4434 12.1585 40.6145 12.329 40.8248 12.329H72.9121C73.1224 12.329 73.2928 12.1585 73.2928 11.9483V11.7889C73.2928 11.5787 73.1224 11.4082 72.9121 11.4082Z" fill="#FFA66C"/>
<path d="M72.9121 14.332H40.8248C40.6145 14.332 40.4434 14.5025 40.4434 14.7135V14.8728C40.4434 15.0831 40.6145 15.2535 40.8248 15.2535H72.9121C73.1224 15.2535 73.2928 15.0831 73.2928 14.8728V14.7135C73.2928 14.5025 73.1224 14.332 72.9121 14.332Z" fill="#FFA66C"/>
<path d="M72.9121 17.2565H40.8248C40.6145 17.2565 40.4434 17.4277 40.4434 17.6379V17.7966C40.4434 18.0076 40.6145 18.178 40.8248 18.178H72.9121C73.1224 18.178 73.2928 18.0076 73.2928 17.7966V17.6379C73.2928 17.4277 73.1224 17.2565 72.9121 17.2565Z" fill="#FFA66C"/>
<path d="M79.2159 14.1365C79.3008 14.073 84.4062 20.6842 90.6182 28.9016C96.8325 37.1219 101.799 43.8356 101.715 43.8991C101.63 43.9633 96.5256 37.3535 90.3113 29.1332C84.1 20.9159 79.1311 14.2007 79.2159 14.1365Z" fill="#2F2E41"/>
<path d="M80.2762 13.5433C80.2762 14.2339 79.717 14.7931 79.0264 14.7931C78.3366 14.7931 77.7773 14.2339 77.7773 13.5433C77.7773 12.8535 78.3366 12.2942 79.0264 12.2942C79.717 12.2942 80.2762 12.8535 80.2762 13.5433Z" fill="#2F2E41"/>
<path d="M113.786 266.766H76.3631C74.5519 266.766 73.1088 265.252 73.1951 263.443L73.955 247.589C74.0354 245.898 75.4298 244.569 77.1223 244.569H114.545C116.356 244.569 117.8 246.083 117.712 247.892L116.953 263.747C116.872 265.437 115.478 266.766 113.786 266.766Z" fill="#FFEEE2"/>
<path d="M111.495 252.283H79.408C79.1978 252.283 79.0273 252.453 79.0273 252.663V252.823C79.0273 253.033 79.1978 253.204 79.408 253.204H111.495C111.706 253.204 111.877 253.033 111.877 252.823V252.663C111.877 252.453 111.706 252.283 111.495 252.283Z" fill="#FFA66C"/>
<path d="M111.495 255.207H79.408C79.1978 255.207 79.0273 255.377 79.0273 255.588V255.747C79.0273 255.957 79.1978 256.128 79.408 256.128H111.495C111.706 256.128 111.877 255.957 111.877 255.747V255.588C111.877 255.377 111.706 255.207 111.495 255.207Z" fill="#FFA66C"/>
<path d="M111.495 258.131H79.408C79.1978 258.131 79.0273 258.302 79.0273 258.512V258.671C79.0273 258.882 79.1978 259.052 79.408 259.052H111.495C111.706 259.052 111.877 258.882 111.877 258.671V258.512C111.877 258.302 111.706 258.131 111.495 258.131Z" fill="#FFA66C"/>
<path d="M127.949 192.613C128.043 192.663 122.059 204.334 114.586 218.679C107.109 233.029 100.974 244.618 100.88 244.569C100.786 244.52 106.769 232.851 114.245 218.501C121.718 204.157 127.855 192.565 127.949 192.613Z" fill="#2F2E41"/>
<path d="M102.13 244.569C102.13 245.259 101.57 245.818 100.88 245.818C100.19 245.818 99.6309 245.259 99.6309 244.569C99.6309 243.878 100.19 243.319 100.88 243.319C101.57 243.319 102.13 243.878 102.13 244.569Z" fill="#2F2E41"/>
<path d="M333.437 257.129H225.006V252.647H333.437C334.462 252.647 335.292 253.477 335.292 254.501V255.275C335.292 256.299 334.462 257.129 333.437 257.129Z" fill="#FF6600"/>
<path d="M223.541 255.237C223.541 255.326 214.443 255.398 203.223 255.398C192 255.398 182.904 255.326 182.904 255.237C182.904 255.148 192 255.076 203.223 255.076C214.443 255.076 223.541 255.148 223.541 255.237Z" fill="#2F2E41"/>
<path d="M238.457 257.129H187.524C181.357 257.129 176.357 252.129 176.357 245.962V241.297C176.357 235.129 181.357 230.13 187.524 230.13H238.457V257.129Z" fill="#FF6600"/>
<path d="M333.437 234.612H225.85C225.384 234.612 225.006 234.233 225.006 233.767V230.974C225.006 230.508 225.384 230.13 225.85 230.13H333.437C334.462 230.13 335.292 230.96 335.292 231.984V232.758C335.292 233.782 334.462 234.612 333.437 234.612Z" fill="#FF6600"/>
<path d="M332.001 252.647H237.312C232.332 252.647 228.295 248.61 228.295 243.629C228.295 238.649 232.332 234.612 237.312 234.612H332.001C329.462 240.623 329.462 246.635 332.001 252.647Z" fill="#EAEAEA"/>
<path d="M194.038 257.129H186.588C180.938 257.129 176.357 252.548 176.357 246.898V245.962C176.357 252.129 181.357 257.129 187.524 257.129H194.038ZM176.357 241.297V240.278C176.357 234.673 180.901 230.13 186.506 230.13H187.524C181.357 230.13 176.357 235.129 176.357 241.297Z" fill="#AAAAAA"/>
<path d="M194.038 257.129H187.524C181.357 257.129 176.357 252.129 176.357 245.962V241.297C176.357 235.129 181.357 230.13 187.524 230.13H225.85C225.384 230.13 225.006 230.508 225.006 230.974V233.767C225.006 233.861 225.022 233.952 225.05 234.036C220.282 240.593 221.578 250.489 227.401 256.3H197.644C196.35 256.3 195.127 256.597 194.038 257.129Z" fill="#FF6600"/>
<path d="M225.049 234.036C225.021 233.952 225.006 233.861 225.006 233.767V230.974C225.006 230.508 225.384 230.13 225.85 230.13H229.323C227.564 231.194 226.146 232.527 225.049 234.036Z" fill="#FF6600"/>
<path d="M320.498 244.466C320.498 244.556 301.062 244.628 277.093 244.628C253.115 244.628 233.684 244.556 233.684 244.466C233.684 244.377 253.115 244.305 277.093 244.305C301.062 244.305 320.498 244.377 320.498 244.466Z" fill="#2F2E41"/>
<path d="M329.431 248.475C329.431 248.564 309.995 248.636 286.026 248.636C262.049 248.636 242.617 248.564 242.617 248.475C242.617 248.386 262.049 248.314 286.026 248.314C309.995 248.314 329.431 248.386 329.431 248.475Z" fill="#2F2E41"/>
<path d="M326.797 238.782C326.797 238.871 307.361 238.943 283.392 238.943C259.414 238.943 239.982 238.871 239.982 238.782C239.982 238.693 259.414 238.62 283.392 238.62C307.361 238.62 326.797 238.693 326.797 238.782Z" fill="#2F2E41"/>
<path d="M228.04 310.852H168.022C160.08 310.852 153.641 304.413 153.641 296.471V290.463C153.641 282.52 160.08 276.081 168.022 276.081H228.04C231.12 276.081 233.616 278.577 233.616 281.657V305.277C233.616 308.356 231.12 310.852 228.04 310.852Z" fill="#FF6600"/>
<path d="M355.937 281.854H217.672C216.912 281.854 216.295 281.236 216.295 280.476V277.46C216.295 276.698 216.912 276.081 217.672 276.081H355.937C357.257 276.081 358.325 277.151 358.325 278.469V279.467C358.325 280.785 357.257 281.854 355.937 281.854Z" fill="#FF6600"/>
<path d="M355.937 310.852H217.672C216.912 310.852 216.295 310.235 216.295 309.474V306.458C216.295 305.696 216.912 305.08 217.672 305.08H355.937C357.257 305.08 358.325 306.149 358.325 307.467V308.465C358.325 309.783 357.257 310.852 355.937 310.852Z" fill="#FF6600"/>
<path d="M354.089 305.08H232.144C225.73 305.08 220.531 299.881 220.531 293.466C220.531 287.053 225.73 281.854 232.144 281.854H354.089C350.819 289.595 350.819 297.338 354.089 305.08Z" fill="#EAEAEA"/>
<path d="M217.671 310.852H170.84C161.341 310.852 153.641 303.152 153.641 293.653C153.641 283.949 161.508 276.081 171.212 276.081H196.195C196.665 276.165 197.148 276.208 197.642 276.208H199.281H217.093C216.621 276.427 216.293 276.905 216.293 277.46V280.476C216.293 280.673 216.335 280.86 216.409 281.03C211.141 288.191 211.532 298.487 216.361 306.029C216.317 306.164 216.293 306.308 216.293 306.458V309.474C216.293 310.235 216.91 310.852 217.671 310.852Z" fill="#FF6600"/>
<path d="M216.411 281.03C216.336 280.86 216.295 280.673 216.295 280.476V277.46C216.295 276.905 216.622 276.427 217.095 276.208H221.648C219.511 277.539 217.772 279.18 216.411 281.03Z" fill="#FF6600"/>
<path d="M220.531 310.852H217.672C216.912 310.852 216.295 310.235 216.295 309.474V306.458C216.295 306.308 216.319 306.164 216.363 306.029C217.508 307.818 218.902 309.451 220.531 310.852Z" fill="#FF6600"/>
<path d="M339.275 294.545C339.275 294.634 314.245 294.706 283.376 294.706C252.497 294.706 227.473 294.634 227.473 294.545C227.473 294.456 252.497 294.384 283.376 294.384C314.245 294.384 339.275 294.456 339.275 294.545Z" fill="#2F2E41"/>
<path d="M350.776 299.707C350.776 299.797 325.747 299.869 294.878 299.869C263.998 299.869 238.975 299.797 238.975 299.707C238.975 299.618 263.998 299.546 294.878 299.546C325.747 299.546 350.776 299.618 350.776 299.707Z" fill="#2F2E41"/>
<path d="M347.387 289.754C347.387 289.843 322.357 289.916 291.488 289.916C260.609 289.916 235.584 289.843 235.584 289.754C235.584 289.665 260.609 289.593 291.488 289.593C322.357 289.593 347.387 289.665 347.387 289.754Z" fill="#2F2E41"/>
<path d="M254.005 276.208H197.644C193.097 276.208 189.41 272.522 189.41 267.974V264.534C189.41 259.986 193.097 256.3 197.644 256.3H254.005C254.216 256.3 254.387 256.471 254.387 256.683V275.826C254.387 276.037 254.216 276.208 254.005 276.208Z" fill="#2F2E41"/>
<path d="M353.768 260.99H241.196C240.708 260.99 240.312 260.594 240.312 260.106V257.183C240.312 256.695 240.708 256.299 241.196 256.299H353.768C354.84 256.299 355.708 257.168 355.708 258.239V259.05C355.708 260.121 354.84 260.99 353.768 260.99Z" fill="#2F2E41"/>
<path d="M353.768 276.208H241.196C240.708 276.208 240.312 275.812 240.312 275.325V272.402C240.312 271.914 240.708 271.519 241.196 271.519H353.768C354.84 271.519 355.708 272.387 355.708 273.458V274.268C355.708 275.339 354.84 276.208 353.768 276.208Z" fill="#2F2E41"/>
<path d="M352.266 271.519H249.019C246.111 271.519 243.754 269.161 243.754 266.254C243.754 263.347 246.111 260.99 249.019 260.99H352.266C349.609 264.499 349.609 268.009 352.266 271.519Z" fill="#EAEAEA"/>
<path d="M241.196 276.208H199.284C193.831 276.208 189.41 271.787 189.41 266.334C189.41 260.792 193.902 256.3 199.444 256.3H241.196C240.708 256.3 240.313 256.695 240.313 257.183V259.224C236.153 263.301 236.471 269.105 240.313 273.386V275.325C240.313 275.812 240.708 276.208 241.196 276.208Z" fill="#2F2E41"/>
<path d="M240.312 259.224V257.183C240.312 256.695 240.708 256.3 241.196 256.3H244.83C242.966 257.096 241.467 258.093 240.312 259.224Z" fill="#2F2E41"/>
<path d="M243.754 276.208H241.196C240.708 276.208 240.312 275.812 240.312 275.325V273.386C241.253 274.433 242.405 275.39 243.754 276.208Z" fill="#2F2E41"/>
<path d="M340.227 265.425C340.227 265.514 319.891 265.587 294.811 265.587C269.723 265.587 249.391 265.514 249.391 265.425C249.391 265.336 269.723 265.264 294.811 265.264C319.891 265.264 340.227 265.336 340.227 265.425Z" fill="#2F2E41"/>
<path d="M349.577 268.259C349.577 268.348 329.241 268.42 304.161 268.42C279.072 268.42 258.74 268.348 258.74 268.259C258.74 268.17 279.072 268.097 304.161 268.097C329.241 268.097 349.577 268.17 349.577 268.259Z" fill="#2F2E41"/>
<path d="M238.777 274.229C238.777 274.318 229.259 274.39 217.518 274.39C205.775 274.39 196.258 274.318 196.258 274.229C196.258 274.139 205.775 274.067 217.518 274.067C229.259 274.067 238.777 274.139 238.777 274.229Z" fill="#2F2E41"/>
<path d="M238.777 258.645C238.777 258.734 229.259 258.807 217.518 258.807C205.775 258.807 196.258 258.734 196.258 258.645C196.258 258.556 205.775 258.484 217.518 258.484C229.259 258.484 238.777 258.556 238.777 258.645Z" fill="#2F2E41"/>
<path d="M354.351 256.3C354.351 256.389 319.431 256.461 276.367 256.461C233.287 256.461 198.375 256.389 198.375 256.3C198.375 256.211 233.287 256.139 276.367 256.139C319.431 256.139 354.351 256.211 354.351 256.3Z" fill="#2F2E41"/>
<path d="M291.73 238.486V249.3L295.478 246.896L299.659 249.3V238.486H291.73Z" fill="#FF6600"/>
<path d="M341.335 53.5655H307.879C300.796 53.5655 295.053 59.3084 295.053 66.3925C295.053 73.2258 300.401 78.7952 307.137 79.1818C308.147 80.9289 309.157 82.6752 310.167 84.4222C311.428 82.6877 312.689 80.9532 313.951 79.2187H341.335C348.419 79.2187 354.162 73.4759 354.162 66.3925C354.162 59.3084 348.419 53.5655 341.335 53.5655Z" fill="#FFEEE2"/>
<path d="M309.906 62.3826L311.105 64.8135L313.788 65.2031L311.847 67.0948L312.305 69.7662L309.906 68.5054L307.506 69.7662L307.964 67.0948L306.023 65.2031L308.706 64.8135L309.906 62.3826Z" fill="#FF6600"/>
<path d="M320.083 62.3826L321.283 64.8135L323.965 65.2031L322.024 67.0948L322.483 69.7662L320.083 68.5054L317.684 69.7662L318.142 67.0948L316.201 65.2031L318.884 64.8135L320.083 62.3826Z" fill="#FF6600"/>
<path d="M330.26 62.3826L331.46 64.8135L334.143 65.2031L332.201 67.0948L332.66 69.7662L330.26 68.5054L327.862 69.7662L328.32 67.0948L326.379 65.2031L329.061 64.8135L330.26 62.3826Z" fill="#FF6600"/>
<path d="M340.436 62.3826L341.636 64.8135L344.318 65.2031L342.377 67.0948L342.835 69.7662L340.436 68.5054L338.037 69.7662L338.495 67.0948L336.555 65.2031L339.237 64.8135L340.436 62.3826Z" fill="#FF6600"/>
<path d="M251.838 63.1676C251.838 63.1676 248.486 75.698 248.197 84.5646L248.102 87.5186C248.102 87.5186 255.496 93.6591 261.7 94.0376L266.899 81.2534L251.838 63.1676Z" fill="#2F2E41"/>
<path d="M284.687 70.8538C283.274 64.7413 282.731 57.6277 277.648 53.6429C273.877 50.6859 269.58 49.8611 264.791 50.0618C262.434 50.1599 259.771 51.2481 257.717 52.4109C254.902 54.0045 253.709 57.2374 252.351 60.1737C249.629 66.0568 249.973 74.0233 251.817 76.2381L276.401 89.2207C281.31 86.6658 284.386 85.6484 285.17 79.1043C285.501 76.3502 285.313 73.5563 284.687 70.8538Z" fill="#2F2E41"/>
<path d="M277.385 58.4997L261.913 53.9343C256.928 53.2083 253.358 59.2397 252.844 64.2506C252.273 69.8164 251.795 76.6349 252.292 80.8248C253.293 89.2494 259.668 90.5671 259.668 90.5671C259.671 90.5391 259.682 90.6933 259.632 93.1825L259.613 98.3086C259.547 99.9391 259.834 100.487 260.83 101.779C263.112 104.735 267.272 105.131 272.176 103.316C275.018 102.265 276.994 100.149 277.212 97.2676L279.902 61.5902C279.992 60.063 278.898 58.7203 277.385 58.4997Z" fill="#B78876"/>
<path d="M259.634 90.5671C259.634 90.5671 265.252 91.1522 270.965 88.0181C270.965 88.0181 267.962 93.7676 259.613 92.6543L259.634 90.5671Z" fill="#A36957"/>
<path d="M261.86 53.032L261.82 53.2135L261.85 53.2261L261.86 53.032Z" fill="#2F2E41"/>
<path d="M272.676 93.9476C272.913 91.752 272.029 89.5468 272.285 87.3541C272.557 85.0287 274.063 83.0359 274.681 80.7783C275.671 77.1625 274.313 73.3165 273.815 69.5796C271.72 69.3214 269.765 68.0628 268.369 66.436C266.69 64.4779 265.675 62.0521 264.686 59.6698C264.745 62.0049 265.553 64.3156 266.964 66.1777C266.034 66.3725 265.053 65.9741 264.354 65.33C263.656 64.686 263.199 63.8242 262.823 62.9515C261.912 60.8377 261.418 58.5521 261.339 56.2525C261.031 59.5422 261.395 62.8961 262.434 66.0339C261.848 65.8531 261.22 66.0154 260.612 66.1032C260.006 66.191 259.309 66.1733 258.881 65.7351C258.594 65.4422 258.49 65.0202 258.406 64.6188C257.829 61.8219 257.734 58.9247 258.128 56.096C257.381 57.6262 256.641 59.1726 256.208 60.8186C255.775 62.4653 255.662 64.2345 256.172 65.8583C255.931 66.1645 255.418 66.1158 255.132 65.8517C254.846 65.5875 254.737 65.1847 254.677 64.7996C254.456 63.3934 254.705 61.9599 254.953 60.5581C254.116 62.0418 253.837 63.7637 253.374 65.4038C252.911 67.0439 252.174 68.7253 250.749 69.6601C250.502 67.2062 250.59 65.5307 250.958 63.234C251.24 61.4781 252.073 59.737 252.841 58.1338C253.703 56.338 254.9 54.5792 256.237 53.4076C258.704 51.2467 259.736 52.177 261.311 53.0003L261.498 53.0785L261.51 52.9627L261.581 52.627C265.682 51.7041 270.031 51.907 274.028 53.2099C276.998 54.1778 277.271 60.5729 277.995 57.534C278.433 55.6954 280.817 57.3739 280.847 57.4263C284.349 63.7446 288.062 73.768 288.232 89.6051L272.676 93.9476Z" fill="#2F2E41"/>
<path d="M282.815 45.6852C281.415 44.1558 279.442 43.0986 277.37 43.0336C275.296 42.9694 273.165 43.9876 272.111 45.773C271.056 47.5584 271.263 50.0661 272.758 51.5033L275.347 53.5742C277.127 54.5547 279.329 54.8786 281.224 54.1438C283.12 53.4097 284.592 51.5136 284.543 49.4811C284.508 48.0608 283.775 46.7328 282.815 45.6852Z" fill="#2F2E41"/>
<path d="M280.816 57.1746C280.316 57.4085 278.899 55.2387 276.369 53.5329C273.878 51.7704 271.347 51.2134 271.389 50.6623C271.411 50.4114 272.123 50.2093 273.278 50.328C274.424 50.4417 275.994 50.9419 277.461 51.9526C278.925 52.9663 279.948 54.2574 280.46 55.2896C280.98 56.3269 281.043 57.0654 280.816 57.1746Z" fill="#2F2E41"/>
<path d="M244.83 126.004L254.524 116.924L261.092 127.356C260.961 128.292 252.589 146.331 248.965 150.07C244.83 154.335 239.193 154.005 236.705 148.115C234.745 143.473 231.49 129.178 231.49 129.178L244.83 126.004Z" fill="#FF6600"/>
<path d="M255.4 98.6944C253.085 99.5288 247.759 102.44 246.206 104.351C245.455 105.276 244.727 106.324 244.249 107.377C243.035 110.046 240.73 129.831 240.73 129.831L251.056 137.307L260.044 102.703L259.471 97.2152L255.4 98.6944Z" fill="#FF6600"/>
<path d="M251.975 155.814L252.625 150.703C252.625 150.703 250.635 141.584 249.904 133.667C248.742 121.081 252.023 113.259 252.473 111.932C252.727 111.181 259.47 97.2152 259.47 97.2152C259.47 97.2152 260.886 101.517 266.575 100.5C274.509 99.081 277.4 94.7798 277.4 94.7798L287.651 96.9968C287.651 96.9968 291.646 113.038 292.234 118.352C292.549 121.202 288.794 137.307 288.794 137.307L294.84 146.352C295.021 146.797 292.214 159.157 291.665 159.667C291.115 160.178 281.281 162.462 281.159 162.882C281.037 163.304 262.411 171.101 262.422 170.782C262.435 170.464 253.461 159.806 253.461 159.806L251.975 155.814Z" fill="#FF6600"/>
<path d="M296.634 153.635C298.472 156.754 302.669 168.693 304.301 174.792C311.746 202.616 318.044 240.036 320.137 247.662C322.925 257.823 329.166 280.814 332.343 296.123L317.085 302.778C317.085 302.778 297.102 248.931 291.65 235.7C286.001 221.989 276.577 196.129 276.577 196.129L271.133 298.705L256.517 299.156C256.517 299.156 251.518 270.252 249.531 252.976C247.544 235.701 247.322 200.14 247.305 191.115C247.285 180.124 252.049 155.399 252.049 155.399C252.049 155.399 257.749 159.677 268.438 158.04C276.952 156.735 294.602 150.186 294.602 150.186L296.634 153.635Z" fill="#2F2E41"/>
<path d="M266.921 161.598C266.895 161.602 266.927 162.021 267.006 162.776C267.085 163.532 267.217 164.622 267.397 165.968C267.754 168.66 268.314 172.37 269.043 176.449C269.773 180.529 270.535 184.203 271.132 186.851C271.43 188.176 271.684 189.245 271.872 189.98C272.06 190.717 272.175 191.12 272.2 191.115C272.226 191.109 272.16 190.694 272.017 189.949C271.857 189.138 271.648 188.077 271.396 186.795C270.865 184.135 270.147 180.456 269.418 176.382C268.689 172.308 268.088 168.608 267.663 165.929C267.456 164.64 267.284 163.572 267.153 162.756C267.029 162.007 266.947 161.595 266.921 161.598Z" fill="#2F2E41"/>
<path d="M272.136 161.383C272.156 161.383 272.113 161.199 271.851 161.084C271.598 160.975 271.199 160.943 270.738 161.049C270.507 161.103 270.258 161.185 270.009 161.347C269.747 161.52 269.566 161.829 269.51 162.157C269.389 162.817 269.697 163.597 270.347 164.013C270.978 164.429 271.805 164.472 272.383 164.106C272.674 163.929 272.87 163.624 272.946 163.347C273.029 163.065 273.032 162.795 273 162.556C272.936 162.076 272.716 161.725 272.509 161.553C272.298 161.378 272.14 161.366 272.136 161.383C272.122 161.414 272.252 161.475 272.403 161.657C272.554 161.836 272.708 162.159 272.733 162.582C272.759 162.991 272.649 163.55 272.2 163.806C271.752 164.075 271.074 164.039 270.556 163.695C270.032 163.366 269.778 162.732 269.856 162.216C269.894 161.957 270.015 161.734 270.192 161.604C270.382 161.465 270.604 161.372 270.806 161.309C271.218 161.18 271.577 161.172 271.802 161.225C272.032 161.277 272.107 161.402 272.136 161.383Z" fill="#2F2E41"/>
<path d="M262.788 187.465C262.761 187.513 263.451 187.954 264.556 188.677C265.662 189.4 267.175 190.418 268.796 191.612C270.416 192.808 271.835 193.953 272.852 194.796C273.869 195.637 274.494 196.167 274.533 196.126C274.566 196.09 274.005 195.491 273.029 194.593C272.053 193.695 270.651 192.509 269.021 191.306C267.39 190.104 265.844 189.115 264.698 188.448C263.551 187.781 262.812 187.422 262.788 187.465Z" fill="#2F2E41"/>
<path d="M299.795 242.952C299.796 242.978 300.021 242.984 300.427 242.972C300.833 242.964 301.419 242.921 302.14 242.839C303.582 242.677 305.565 242.314 307.684 241.652C309.802 240.986 311.638 240.153 312.915 239.462C313.554 239.118 314.06 238.819 314.398 238.594C314.737 238.372 314.918 238.239 314.905 238.217C314.874 238.165 314.092 238.6 312.793 239.222C311.495 239.846 309.664 240.63 307.57 241.288C305.475 241.942 303.524 242.344 302.103 242.573C300.681 242.802 299.791 242.891 299.795 242.952Z" fill="#2F2E41"/>
<path d="M302.272 241.391C302.288 241.439 302.863 241.295 303.768 240.992C304.674 240.69 305.908 240.22 307.239 239.622C308.568 239.023 309.739 238.411 310.566 237.933C311.394 237.456 311.881 237.121 311.856 237.078C311.802 236.981 309.726 238.089 307.082 239.275C304.442 240.468 302.236 241.286 302.272 241.391Z" fill="#2F2E41"/>
<path d="M256.423 288.518L256.348 303.745C256.348 303.745 240.843 308.782 240.555 311.594L270.076 312.804L271.169 289.081L256.423 288.518Z" fill="#2F2E41"/>
<path d="M265.529 302.84C266.094 303.02 266.462 303.678 266.306 304.25C266.15 304.822 265.483 305.202 264.915 305.033C264.347 304.863 263.881 304.086 264.1 303.535C264.319 302.985 265.126 302.58 265.637 302.882" fill="#EAEAEA"/>
<path d="M270.079 312.804L270.095 310.408L241.784 310.145C241.784 310.145 240.447 310.663 240.557 311.594L270.079 312.804Z" fill="#2F2E41"/>
<path d="M255.876 303.575C255.875 303.72 256.593 303.815 257.283 304.307C257.986 304.782 258.326 305.421 258.461 305.37C258.596 305.347 258.416 304.476 257.569 303.895C256.728 303.305 255.85 303.442 255.876 303.575Z" fill="white"/>
<path d="M252.726 304.729C252.687 304.867 253.302 305.138 253.767 305.768C254.249 306.384 254.346 307.049 254.49 307.048C254.625 307.076 254.758 306.236 254.166 305.464C253.58 304.687 252.735 304.592 252.726 304.729Z" fill="white"/>
<path d="M250.816 308.363C250.946 308.399 251.176 307.687 250.838 306.883C250.506 306.076 249.839 305.737 249.773 305.854C249.686 305.969 250.107 306.411 250.374 307.076C250.657 307.733 250.673 308.343 250.816 308.363Z" fill="white"/>
<path d="M256.278 300.107C256.333 300.241 257.002 300.069 257.815 300.158C258.629 300.23 259.252 300.529 259.332 300.409C259.42 300.308 258.822 299.749 257.864 299.658C256.907 299.56 256.211 299.991 256.278 300.107Z" fill="white"/>
<path d="M326.144 286.919L331.799 304.454L340.271 317.033C340.882 317.94 340.596 319.174 339.65 319.722C339.121 320.028 338.481 320.061 337.925 319.806C334.383 318.183 321.385 312.149 321.042 310.843C320.647 309.33 313.85 292.743 313.85 292.743L326.144 286.919Z" fill="#2F2E41"/>
<path d="M339.65 319.722L320.633 309.669L320.89 310.406C321.112 311.043 321.549 311.584 322.131 311.925C323.689 312.838 328.042 315.269 337.872 319.826C338.443 320.091 339.113 320.051 339.65 319.722Z" fill="#2F2E41"/>
<path d="M321.982 304.938C321.904 304.938 321.826 304.928 321.749 304.909C321.206 304.769 320.737 304.051 320.925 303.521C321.073 303.107 321.565 302.765 322.008 302.765C322.13 302.765 322.248 302.79 322.354 302.848C322.839 303.041 323.156 303.608 323.037 304.119C322.928 304.588 322.457 304.938 321.982 304.938Z" fill="#AAAAAA"/>
<path d="M333.028 313.502C333.143 313.516 333.219 312.469 334.083 311.618C334.921 310.742 335.968 310.653 335.953 310.538C335.954 310.49 335.686 310.432 335.259 310.516C334.834 310.597 334.266 310.859 333.795 311.334C333.326 311.811 333.072 312.383 332.997 312.809C332.918 313.237 332.98 313.504 333.028 313.502Z" fill="white"/>
<path d="M335.077 315.401C335.185 315.448 335.548 314.688 336.358 314.117C337.155 313.528 337.99 313.425 337.981 313.307C338 313.201 337.034 313.123 336.121 313.789C335.201 314.445 334.97 315.386 335.077 315.401Z" fill="white"/>
<path d="M329.682 311.318C329.793 311.373 330.343 310.201 331.525 309.203C332.692 308.186 333.934 307.82 333.897 307.703C333.894 307.601 332.516 307.809 331.262 308.895C329.997 309.97 329.582 311.299 329.682 311.318Z" fill="white"/>
<path d="M327.518 306.132C327.601 306.221 328.422 305.484 329.657 305.004C330.887 304.507 331.989 304.479 331.989 304.358C332.007 304.256 330.83 304.097 329.508 304.628C328.182 305.147 327.435 306.071 327.518 306.132Z" fill="white"/>
<path d="M325.729 301.027C325.818 301.108 326.583 300.192 327.925 299.793C329.258 299.363 330.407 299.687 330.433 299.569C330.45 299.524 330.184 299.371 329.702 299.279C329.223 299.185 328.526 299.185 327.805 299.406C327.085 299.631 326.511 300.025 326.169 300.373C325.823 300.722 325.69 300.998 325.729 301.027Z" fill="white"/>
<path d="M327.553 298.831C327.575 298.824 327.533 298.576 327.348 298.165C327.163 297.757 326.824 297.18 326.225 296.623C325.924 296.365 325.584 296.018 325.018 295.958C324.736 295.926 324.392 296.096 324.266 296.399C324.139 296.694 324.175 297.002 324.265 297.28C324.667 298.378 325.987 299.116 327.284 298.843C328.579 298.546 329.462 297.44 329.623 296.315C329.645 296.03 329.615 295.701 329.377 295.454C329.142 295.204 328.747 295.209 328.513 295.338C328.023 295.596 327.8 296.007 327.574 296.333C327.142 297.024 326.947 297.66 326.856 298.098C326.766 298.539 326.775 298.79 326.798 298.793C326.876 298.817 326.941 297.785 327.813 296.491C328.039 296.184 328.292 295.807 328.652 295.644C328.827 295.562 329.009 295.58 329.124 295.704C329.239 295.822 329.279 296.052 329.252 296.279C329.106 297.205 328.297 298.213 327.199 298.447C326.108 298.689 324.949 298.038 324.617 297.158C324.54 296.944 324.521 296.709 324.592 296.542C324.661 296.378 324.82 296.284 325.003 296.293C325.389 296.311 325.743 296.598 326.035 296.837C327.213 297.86 327.481 298.876 327.553 298.831Z" fill="white"/>
<path d="M233.465 113.852L240.505 121.124L240.791 127.457L232.619 129.336H232.203L231.675 125.248L226.965 118.987L233.465 113.852Z" fill="#B78876"/>
<path d="M167.301 108.477C175.098 115.781 185.273 119.612 195.951 119.262C206.629 118.913 216.533 114.425 223.836 106.629C231.139 98.831 234.97 88.6556 234.62 77.9778C234.272 67.2992 229.784 57.3968 221.986 50.0928C214.189 42.7888 204.014 38.959 193.335 39.3087C182.658 39.6577 172.754 44.1449 165.451 51.9417C156.303 61.7084 153.011 74.885 155.433 87.107C157.001 95.0278 160.971 102.549 167.301 108.477ZM225.931 108.591C218.103 116.949 207.49 121.757 196.045 122.131C184.602 122.506 173.696 118.401 165.338 110.573C148.086 94.4125 147.197 67.2306 163.357 49.9792C171.184 41.6217 181.797 36.8136 193.242 36.4388C204.687 36.0648 215.592 40.1697 223.949 47.9968C230.734 54.3527 234.987 62.4107 236.669 70.9018C239.263 83.9995 235.735 98.1235 225.931 108.591Z" fill="#2F2E41"/>
<path d="M167.301 108.477C175.098 115.781 185.273 119.612 195.951 119.262C206.629 118.913 216.533 114.425 223.836 106.629C231.139 98.831 234.97 88.6556 234.62 77.9778C234.272 67.2992 229.784 57.3968 221.986 50.0928C214.189 42.7888 204.014 38.959 193.335 39.3087C182.658 39.6577 172.754 44.1449 165.451 51.9417C156.303 61.7084 153.011 74.885 155.433 87.107C157.001 95.0278 160.971 102.549 167.301 108.477ZM225.931 108.591C218.103 116.949 207.49 121.757 196.045 122.131C184.602 122.506 173.696 118.401 165.338 110.573C148.086 94.4125 147.197 67.2306 163.357 49.9792C171.184 41.6217 181.797 36.8136 193.242 36.4388C204.687 36.0648 215.592 40.1697 223.949 47.9968C230.734 54.3527 234.987 62.4107 236.669 70.9018C239.263 83.9995 235.735 98.1235 225.931 108.591Z" fill="#2F2E41"/>
<path d="M168.356 106.414C176.153 113.718 186.328 117.548 197.006 117.198C207.683 116.849 217.587 112.362 224.89 104.565C232.194 96.7674 236.024 86.592 235.674 75.9149C235.326 65.2356 230.839 55.3332 223.041 48.0292C215.243 40.7252 205.069 36.8954 194.39 37.2451C183.713 37.5941 173.809 42.0812 166.506 49.8788C157.358 59.6455 154.066 72.8214 156.487 85.0434C158.056 92.9649 162.025 100.486 168.356 106.414ZM226.986 106.527C219.157 114.885 208.544 119.694 197.1 120.068C185.656 120.442 174.751 116.337 166.393 108.51C149.141 92.3496 148.252 65.167 164.411 47.9163C172.238 39.5588 182.852 34.75 194.297 34.3759C205.742 34.0018 216.647 38.1061 225.003 45.9339C231.789 52.2891 236.042 60.3478 237.723 68.8389C240.318 81.9359 236.789 96.0599 226.986 106.527Z" fill="#2F2E41"/>
<path d="M274.576 160.643L275.94 159.323C277.156 158.146 276.475 155.455 275.197 154.148L227.306 104.647L220.902 110.842L268.723 160.27C270.338 161.854 273.01 162.159 274.576 160.643Z" fill="#2F2E41"/>
<path d="M230.436 110.613C230.209 110.399 229.767 110.265 229.468 110.355C229.169 110.446 228.927 110.663 228.708 110.885C227.151 112.467 226.245 114.671 226.24 116.891C226.239 117.842 226.491 118.933 227.338 119.366L228.3 118.81C228.599 118.425 229.489 117.781 229.607 117.309C230.105 115.32 229.391 115.404 230.637 111.954C230.76 111.615 230.895 111.049 230.436 110.613Z" fill="#B78876"/>
<path d="M230.212 113.433C230.481 112.962 230.784 112.504 231.164 112.178C231.545 111.851 232.017 111.669 232.43 111.8C233.095 112.008 233.418 112.964 233.342 113.853C233.266 114.742 232.887 115.579 232.517 116.381C231.728 118.091 230.939 119.8 230.151 121.51L229.692 121.173C229.366 121.493 228.889 121.328 228.671 120.947C228.452 120.567 228.429 120.047 228.446 119.551C228.513 117.416 229.169 115.254 230.212 113.433Z" fill="#B78876"/>
<path d="M231.371 118.549C231.915 117.345 232.824 116.341 233.739 115.374C234.058 115.038 234.397 114.692 234.839 114.54C235.281 114.387 235.857 114.497 236.075 114.902C236.285 115.291 236.099 115.763 235.908 116.161C234.721 118.632 233.359 121.023 231.834 123.312L230.42 121.886C229.779 120.73 230.827 119.752 231.371 118.549Z" fill="#B78876"/>
<path d="M269.576 134.362L268.277 134.087L261.482 128.296L257.763 125.172C257.451 124.911 257.076 124.737 256.674 124.67L252.994 124.056C252.994 124.056 252.417 125.658 254.095 126.581L256.113 127.625L257.958 129.806L257.722 130.278C257.722 130.278 245.626 132.155 244.871 133.078C244.116 134 244.871 134.84 245.207 135.007C245.542 135.175 246.129 135.091 246.129 135.091C246.129 135.091 245.542 136.517 247.304 137.692C247.304 137.692 245.962 139.454 248.311 140.293C248.311 140.293 248.982 141.635 250.324 142.054C251.666 142.473 258.881 143.312 259.637 143.312C260.391 143.312 268.308 143.325 268.308 143.325L270.049 143.61L269.576 134.362Z" fill="#B78876"/>
<path d="M245.852 135.11C245.842 135.208 247.343 135.417 249.197 135.29C251.046 135.155 252.515 134.894 252.507 134.799C252.497 134.685 251 134.777 249.173 134.911C247.349 135.035 245.86 134.999 245.852 135.11Z" fill="#6F3430"/>
<path d="M247.305 137.692C247.305 137.746 247.619 137.788 248.124 137.855C248.628 137.918 249.325 138.017 250.112 138.065C250.906 138.117 251.616 138.042 252.119 138.022C252.626 137.988 252.932 137.996 252.944 137.948C252.959 137.894 252.638 137.788 252.122 137.753C251.603 137.705 250.899 137.735 250.134 137.685C249.364 137.639 248.656 137.581 248.14 137.586C247.623 137.588 247.304 137.64 247.305 137.692Z" fill="#6F3430"/>
<path d="M248.07 140.239C248.063 140.344 249.523 140.539 251.332 140.677C252.239 140.734 253.037 140.805 253.564 141.023C254.097 141.223 254.34 141.51 254.388 141.467C254.425 141.449 254.24 141.072 253.676 140.778C253.121 140.471 252.259 140.354 251.361 140.298C249.552 140.16 248.078 140.134 248.07 140.239Z" fill="#6F3430"/>
<path d="M287.652 96.9969C287.652 96.9969 292.764 97.8785 296.64 105.496C298.784 109.707 308.797 135.03 309.391 137.251C311.931 146.751 307.015 152.875 302.281 153.291C297.07 153.749 270.125 145.054 270.125 145.054L269.529 133.541L294.11 137.274L282.3 114.351C282.3 114.351 281.847 99.084 287.652 96.9969Z" fill="#FF6600"/>
<path d="M5.2635 112.97C5.2635 112.97 -0.168751 143.186 0.0931597 146.012C0.355808 148.837 1.80038 153.332 5.07758 154.102C8.35478 154.873 11.3708 154.102 11.3708 154.102L7.43698 116.988L5.2635 112.97Z" fill="#FFBE9D"/>
<path d="M21.1252 87.157L20.7445 55.9329C20.397 48.1678 24.6259 41.4946 32.3969 41.3618L33.1155 41.3913C40.3501 41.6901 46.1446 47.492 46.4279 54.7274C46.692 61.4581 46.8971 68.8993 46.7038 72.4967C46.304 79.9438 38.8037 80.7952 38.8037 80.7952C38.7868 80.7952 38.7572 85.3281 38.7617 87.5171L32.7643 95.8377L32.7636 96.2826L21.1252 87.157Z" fill="#FFBE9D"/>
<path d="M38.8017 80.7953C38.8017 80.7953 34.094 80.8765 29.2188 77.5263C29.2188 77.5263 31.3207 83.2241 38.784 82.8604L38.8017 80.7953Z" fill="#F2A181"/>
<path d="M21.1245 61.4751C20.9999 61.4146 16.0671 59.7494 16.0199 64.8504C15.9719 69.9507 21.1031 68.9465 21.1135 68.8005C21.1231 68.6544 21.1245 61.4751 21.1245 61.4751Z" fill="#FFBE9D"/>
<path d="M56.7236 48.0158C56.6454 47.7148 56.43 47.4647 56.1637 47.3038C55.583 46.9519 54.9102 46.9903 54.2594 46.9726C52.6408 46.9283 51.0405 46.496 49.6056 45.7471C50.1117 45.4978 50.5853 45.1931 50.9889 44.7991C51.8226 43.9861 52.311 42.7326 51.9458 41.6267C51.8779 41.4186 51.7599 41.201 51.5518 41.1338C51.2213 41.0283 50.9276 41.3507 50.6938 41.606C49.9243 42.4463 49.2182 42.8027 48.0865 42.6758C47.3834 42.5961 46.7039 42.4308 46.1543 42.0797L46.0908 42.0081C45.8289 41.7314 45.5729 41.4673 45.3206 41.2113L45.3191 41.2083L45.3198 41.2098C43.4223 39.285 41.7873 37.9474 40.0956 37.2443C37.6167 36.2136 33.4564 35.7599 30.852 36.4113C28.2477 37.0635 25.892 39.1433 25.5009 41.7993C24.0586 40.5517 21.8726 40.537 20.0908 41.2297L20.0466 41.2098C18.0634 41.8915 16.9177 43.9654 16.312 45.9736C16.2788 46.0828 16.2493 46.1942 16.2183 46.3049C15.5388 47.3562 14.6202 48.2526 13.5305 48.8709C13.3387 48.9793 13.1181 49.1136 13.0923 49.3327C13.0665 49.5504 13.2487 49.7326 13.425 49.8624C13.895 50.207 14.4439 50.4357 15.0164 50.5449C14.8305 51.0215 14.6129 51.4841 14.3458 51.9253C14.1185 52.3001 13.8485 52.7494 14.0389 53.1448C14.1857 53.4503 14.5701 53.5794 14.9065 53.5344C15.2422 53.4886 15.5417 53.3064 15.8309 53.1286C15.6044 53.6531 15.3779 54.1784 15.1514 54.7037C15.8649 54.8358 16.6056 54.7871 17.3021 54.5842C17.7005 56.4729 17.9756 59.9648 18.4463 61.2471C19.8002 61.2862 20.1307 61.1423 20.8109 61.3769C21.6911 61.6801 21.3362 63.2398 22.4908 62.8089C23.0781 62.5891 24.0018 60.3817 24.2047 59.7877C25.5489 55.8473 26.0285 51.6154 25.6057 47.4735C26.4335 46.6111 27.4295 45.9095 28.5207 45.4203L28.4314 45.4985C30.5252 44.7976 32.892 44.1122 34.8604 45.1134C36.3861 45.891 37.2707 47.4942 38.4039 48.7779C40.5516 51.2111 42.9988 52.5251 46.2398 52.7014C46.5062 54.9568 46.5512 58.6405 46.6375 60.7432L48.4797 56.557L48.4804 56.574C48.628 56.3298 48.7505 56.0826 48.8693 55.8347L48.9098 55.7602V55.7506C49.098 55.353 49.278 54.9546 49.5148 54.5613L49.5347 54.5798C50.6613 55.5972 52.3567 54.0803 51.4729 52.846C51.2973 52.6011 51.087 52.3819 50.845 52.2005C51.36 52.6955 52.1332 52.9382 52.8178 52.7361C53.5025 52.5339 54.0396 51.85 53.9887 51.1381C53.954 50.6519 53.6117 50.2136 53.1757 50.0167C54.0942 50.0978 55.0371 49.9089 55.8442 49.4604C56.3732 49.1667 56.8941 48.6791 56.7236 48.0158Z" fill="#2F2E41"/>
<path d="M27.84 42.6832C27.8548 42.7024 27.525 42.8772 27.0831 43.3597C26.6456 43.84 26.1513 44.6789 25.9093 45.8254C25.7853 46.3949 25.7042 47.0331 25.6968 47.72C25.6858 48.4076 25.733 49.1439 25.7772 49.9208C25.8185 50.6969 25.8643 51.5173 25.8053 52.3694C25.775 52.7944 25.719 53.2275 25.6216 53.6591C25.5227 54.0833 25.4061 54.5437 25.0808 54.9052C24.8218 55.2003 24.3924 55.3279 24.0235 55.2475C23.651 55.1774 23.3212 54.9753 23.0814 54.7016C22.6077 54.1357 22.4956 53.423 22.3835 52.7951L22.5399 52.8158C22.278 53.3765 22.0087 53.9298 21.614 54.3696C21.2259 54.8122 20.6925 55.1014 20.1532 55.1435C19.8839 55.1649 19.6139 55.1191 19.3851 55.0003C19.1513 54.883 18.9823 54.6861 18.868 54.4795C18.758 54.2685 18.7027 54.0376 18.7167 53.8155C18.7322 53.5942 18.8207 53.3846 18.9631 53.2378L19.0413 53.3094C18.4585 53.9586 17.8469 54.3039 17.4241 54.4942C17.2109 54.5894 17.0405 54.6455 16.9247 54.6816C16.8088 54.7148 16.7476 54.7288 16.7461 54.7237C16.7446 54.7185 16.8029 54.6956 16.9151 54.6536C17.0272 54.6093 17.1932 54.5444 17.3998 54.4426C17.81 54.2382 18.4024 53.8841 18.9617 53.2393L19.0399 53.3108C18.7861 53.5742 18.7662 54.0412 18.9779 54.4197C19.0849 54.6064 19.2398 54.7812 19.4456 54.8808C19.65 54.9841 19.8964 55.0247 20.1414 55.0026C20.6372 54.959 21.1351 54.6875 21.4981 54.2663C21.87 53.8457 22.1311 53.3072 22.3901 52.7457L22.5 52.5074L22.5465 52.7671C22.6594 53.3942 22.7789 54.0781 23.2112 54.5879C23.4259 54.8329 23.7284 55.0158 24.0538 55.0763C24.3806 55.1435 24.7266 55.0395 24.9531 54.7864C25.2372 54.4736 25.3567 54.0375 25.4526 53.6207C25.5478 53.1987 25.6039 52.776 25.6348 52.3576C25.6953 51.5195 25.6533 50.705 25.6164 49.9289C25.5766 49.1527 25.5353 48.4135 25.5522 47.717C25.5662 47.0213 25.6555 46.3743 25.789 45.7973C26.0502 44.6361 26.5726 43.7869 27.0329 43.3132C27.4985 42.8366 27.84 42.6832 27.84 42.6832Z" fill="#2F2E41"/>
<path d="M50.8526 50.21L50.7921 50.2595C50.7412 50.2964 50.6792 50.3399 50.6039 50.3937C50.522 50.4535 50.4173 50.5236 50.2852 50.5929C50.1554 50.6652 50.0078 50.7538 49.8285 50.8268C49.1313 51.1485 48.0158 51.4628 46.6266 51.3654C45.2506 51.2724 43.6032 50.7656 42.1402 49.6501C40.6609 48.5611 39.3698 46.966 38.3207 45.1452C37.7873 44.2348 37.3557 43.303 36.8776 42.442C36.4025 41.5803 35.8765 40.782 35.2353 40.1505C34.6016 39.5145 33.8631 39.0423 33.0995 38.8203C32.718 38.7022 32.3337 38.672 31.9663 38.6764C31.5981 38.6919 31.2484 38.7627 30.9252 38.8645C30.2797 39.0733 29.7566 39.4223 29.3582 39.7838C28.9591 40.1482 28.6891 40.5349 28.5031 40.8669C28.1564 41.5493 28.132 41.9897 28.1055 41.9816L28.1121 41.9034C28.1224 41.8415 28.135 41.7669 28.1505 41.6755C28.1888 41.4763 28.2781 41.187 28.4434 40.8359C28.6227 40.4928 28.8897 40.0922 29.2918 39.7122C29.6924 39.336 30.2236 38.97 30.8869 38.7472C31.2181 38.6388 31.5789 38.5613 31.9603 38.5421C32.341 38.5333 32.7446 38.562 33.1393 38.6808C33.9332 38.9051 34.6975 39.3891 35.3482 40.0361C36.0085 40.6802 36.5464 41.4918 37.0274 42.3594C37.5114 43.2263 37.9437 44.1559 38.4712 45.0574C39.513 46.865 40.7856 48.4416 42.2361 49.521C43.6725 50.6269 45.2809 51.133 46.6362 51.2422C48.0018 51.3543 49.104 51.0636 49.8012 50.7641C50.5043 50.4609 50.8393 50.1879 50.8526 50.21Z" fill="#2F2E41"/>
<path d="M51.5687 46.9372C51.5753 46.9476 51.4787 47.0125 51.2994 47.1202C51.1216 47.2323 50.8486 47.3688 50.5018 47.5142C50.1558 47.6617 49.7272 47.799 49.2417 47.9118C48.7548 48.0159 48.2103 48.0911 47.6341 48.1066C47.0586 48.1147 46.5112 48.0623 46.0199 47.9782C45.53 47.8853 45.0962 47.7665 44.7442 47.633C44.3923 47.5024 44.1142 47.3769 43.932 47.2722C43.7475 47.1718 43.6486 47.1113 43.6545 47.1003C43.6693 47.0708 44.0795 47.2877 44.7848 47.5156C45.136 47.6329 45.5654 47.737 46.0471 47.8196C46.5297 47.8934 47.0668 47.9406 47.6312 47.9318C48.1948 47.917 48.729 47.8484 49.2085 47.7547C49.6859 47.6521 50.1108 47.5297 50.4568 47.3991C51.1526 47.1416 51.5532 46.9085 51.5687 46.9372Z" fill="#2F2E41"/>
<path d="M32.0416 283.951L31.3045 300.814C31.3045 300.814 48.1966 307.227 48.3641 310.356L15.6172 310.101L15.6873 283.779L32.0416 283.951Z" fill="#2F2E41"/>
<path d="M21.19 299.316C20.5548 299.485 20.1114 300.193 20.253 300.835C20.3954 301.477 21.1125 301.934 21.7507 301.777C22.3889 301.62 22.9474 300.785 22.7342 300.163C22.5209 299.541 21.6496 299.051 21.0683 299.356L21.19 299.316Z" fill="#EAEAEA"/>
<path d="M48.3641 310.356L15.6172 310.101L15.7279 307.448L44.4207 308.58L47.8366 309.434C47.8757 309.48 47.9126 309.525 47.9458 309.569C48.3147 310.027 48.339 310.351 48.3641 310.356Z" fill="#AAAAAA"/>
<path d="M31.8383 300.652C31.8317 300.811 31.0319 300.877 30.241 301.386C29.4368 301.873 29.0259 302.563 28.8791 302.499C28.7323 302.466 28.978 301.512 29.9467 300.914C30.9087 300.307 31.8745 300.505 31.8383 300.652Z" fill="#2F2E41"/>
<path d="M35.2611 302.098C35.2972 302.254 34.6023 302.52 34.0541 303.193C33.486 303.848 33.3429 304.579 33.1835 304.571C33.0337 304.594 32.9305 303.657 33.6277 302.835C34.3182 302.006 35.2589 301.947 35.2611 302.098Z" fill="#2F2E41"/>
<path d="M37.1793 306.225C37.034 306.258 36.8178 305.457 37.2354 304.585C37.6463 303.709 38.4033 303.369 38.4697 303.503C38.5589 303.635 38.0698 304.102 37.7385 304.823C37.3896 305.537 37.3387 306.21 37.1793 306.225Z" fill="#2F2E41"/>
<path d="M31.5776 296.79C31.5097 296.935 30.7771 296.708 29.8733 296.763C28.968 296.799 28.262 297.097 28.1801 296.959C28.0879 296.843 28.7792 296.256 29.8453 296.208C30.9106 296.15 31.6572 296.665 31.5776 296.79Z" fill="#2F2E41"/>
<path d="M31.9993 296.599C32.0812 296.602 32.093 298.161 32.0436 300.66L31.913 300.459C33.8261 301.186 36.3699 302.166 39.0716 303.44C42.0294 304.823 44.6367 306.268 46.3277 307.619C47.1761 308.285 47.801 308.919 48.1227 309.447C48.4643 309.973 48.4185 310.375 48.3654 310.356C48.3403 310.351 48.316 310.027 47.9471 309.569C47.5929 309.109 46.9526 308.54 46.0938 307.928C44.3844 306.687 41.7785 305.311 38.8385 303.936C36.1545 302.67 33.6387 301.646 31.7625 300.844L31.623 300.784L31.6319 300.643C31.7809 298.149 31.9167 296.595 31.9993 296.599Z" fill="#2F2E41"/>
<path d="M10.8652 166.366V181.648L16.8936 230.45C16.8936 230.45 14.9828 253.337 13.809 266.256C12.7901 277.475 14.456 297.014 14.456 297.014H32.3293L38.7244 231.852L42.6936 191.213L49.8928 167.14L10.8652 166.366Z" fill="#2F2E41"/>
<path d="M42.554 281.025L37.8728 297.242C37.8728 297.242 52.784 307.447 52.21 310.528L20.4414 302.58L26.6985 277.014L42.554 281.025Z" fill="#2F2E41"/>
<path d="M28.3915 293.408C27.7341 293.422 27.1365 294.007 27.1232 294.664C27.1107 295.32 27.7009 295.934 28.3575 295.931C29.0149 295.928 29.7542 295.248 29.6929 294.594C29.6324 293.939 28.9006 293.258 28.2631 293.418" fill="#EAEAEA"/>
<path d="M52.2071 310.528C52.2904 310.083 52.0499 309.489 51.5777 308.798C51.9193 309.13 52.5051 309.833 52.2071 310.528Z" fill="white"/>
<path d="M44.4243 308.58H44.4235L20.4414 302.58L44.4243 308.58Z" fill="#AAAAAA"/>
<path d="M47.8378 309.434L44.4219 308.58H44.4226L47.8378 309.434Z" fill="#EAEAEA"/>
<path d="M52.21 310.528L48.167 309.516L47.8394 309.434L44.4243 308.58L20.4414 302.58L21.1733 300.028L51.3594 308.602C51.3594 308.602 51.4531 308.674 51.5807 308.798C52.0529 309.489 52.2934 310.083 52.21 310.528Z" fill="#AAAAAA"/>
<path d="M38.4252 297.209C38.381 297.363 37.5879 297.24 36.6996 297.547C35.8039 297.832 35.2417 298.405 35.1148 298.308C34.9791 298.242 35.4424 297.372 36.524 297.019C37.6026 296.655 38.4939 297.075 38.4252 297.209Z" fill="#2F2E41"/>
<path d="M41.4125 299.421C41.4102 299.58 40.6725 299.676 39.9812 300.2C39.2751 300.704 38.9645 301.38 38.8118 301.335C38.6598 301.323 38.7793 300.388 39.6514 299.752C40.5168 299.108 41.4457 299.272 41.4125 299.421Z" fill="#2F2E41"/>
<path d="M42.3072 303.882C42.1575 303.88 42.1361 303.051 42.7469 302.301C43.3527 301.547 44.1672 301.395 44.2011 301.54C44.2564 301.69 43.6714 302.028 43.1793 302.651C42.6732 303.263 42.4651 303.906 42.3072 303.882Z" fill="#2F2E41"/>
<path d="M39.0837 293.395C38.9834 293.52 38.3253 293.128 37.4333 292.969C36.545 292.79 35.7888 292.914 35.7416 292.76C35.6796 292.626 36.489 292.218 37.5374 292.422C38.5857 292.617 39.19 293.293 39.0837 293.395Z" fill="#2F2E41"/>
<path d="M56.7954 167.409L57.6158 175.72L56.6243 236.075L42.4796 284.559L39.0519 296.316L20.7949 292.879L34.868 167.426L56.7954 167.409Z" fill="#2F2E41"/>
<path d="M56.2467 237.339C56.2467 237.339 56.2275 237.437 56.1774 237.626C56.1228 237.824 56.0461 238.102 55.9464 238.464C55.7347 239.212 55.4263 240.3 55.0272 241.711C54.209 244.554 53.0204 248.688 51.522 253.899C48.4949 264.338 44.2188 279.086 39.2093 296.362L39.1687 296.501L39.0256 296.474C33.2539 295.391 27.1179 294.237 20.7663 293.045L20.5996 293.013L20.6313 292.847C21.5624 287.927 22.5363 282.786 23.5286 277.544C26.4775 262.019 29.2596 247.375 31.6899 234.58L31.6891 234.632C28.6657 215.652 26.2547 200.516 24.8699 191.826L24.878 191.85C23.55 189.433 22.5267 187.571 21.8287 186.302C21.4894 185.676 21.2304 185.199 21.0511 184.867C20.8778 184.544 20.7981 184.375 20.7981 184.375C20.7981 184.375 20.8999 184.532 21.0836 184.849C21.2703 185.176 21.5395 185.649 21.8922 186.266C22.6041 187.528 23.6474 189.38 25.0012 191.781L25.0071 191.791L25.0093 191.804C26.4266 200.489 28.8952 215.616 31.9909 234.584L31.9953 234.61L31.9901 234.637C29.571 247.434 26.8021 262.08 23.8665 277.608C22.8727 282.849 21.8974 287.991 20.9648 292.909L20.8291 292.712C27.1798 293.91 33.3144 295.069 39.0846 296.159L38.9009 296.271C43.9591 279.011 48.2765 264.275 51.3331 253.845C52.8692 248.644 54.088 244.519 54.9261 241.682C55.3474 240.277 55.672 239.193 55.8948 238.449C56.0055 238.09 56.0903 237.815 56.1508 237.619C56.2098 237.432 56.2467 237.339 56.2467 237.339Z" fill="#2F2E41"/>
<path d="M53.5172 172.358C53.5482 172.378 53.2251 172.976 52.5234 173.817C51.8255 174.657 50.7115 175.709 49.2809 176.584C47.8467 177.455 46.4006 177.963 45.3338 178.198C44.2648 178.436 43.5853 178.449 43.5823 178.412C43.5484 178.297 46.2915 178.029 49.1016 176.291C51.934 174.591 53.4302 172.276 53.5172 172.358Z" fill="#2F2E41"/>
<path d="M92.4222 81.2873C92.6531 80.9458 92.5956 80.461 92.2496 80.2227C92.161 80.1622 92.0681 80.1268 91.9766 80.1423C91.6114 80.2028 90.6493 80.9052 89.9086 80.9177C89.1686 80.9295 87.9078 80.7023 87.167 81.3906C86.4263 82.0782 84.6217 85.849 84.3923 86.668C84.1621 87.4861 83.3594 94.6787 83.3594 94.6787L92.4222 81.2873Z" fill="#FFBE9D"/>
<path d="M95.5511 80.3444C95.5112 80.3902 86.6904 84.2834 82.8163 85.9914C81.9539 86.3721 81.7584 87.4905 82.4393 88.1523C82.8599 88.5611 83.4966 88.6599 84.016 88.3973L96.6747 82.2295L97.7179 80.644L95.5511 80.3444Z" fill="#2F2E41"/>
<path d="M86.2094 88.2829L89.0225 86.2105L92.7358 80.8225C92.7358 80.8225 94.2556 79.9187 95.0435 80.4875C95.8315 81.0564 96.089 81.7152 95.723 82.4515C95.723 82.4515 97.8213 82.9517 97.971 83.6541C98.1208 84.3564 97.6678 86.0659 97.6678 86.0659C97.6678 86.0659 97.9792 87.3784 97.6833 88.0733C97.3882 88.7683 97.4184 89.3696 97.4184 89.3696C97.4184 89.3696 98.7774 91.0326 98.1938 92.7324C97.6095 94.433 95.1579 98.2281 93.8484 99.2093C92.5381 100.19 90.0547 101.366 90.0547 101.366L88.4345 104.761L81.709 98.6715L86.2094 88.2829Z" fill="#FFBE9D"/>
<path d="M83.533 88.4289C83.5168 88.4105 83.6547 88.3057 83.7757 88.0718C83.896 87.8453 83.9845 87.4639 83.8414 87.0943C83.6968 86.7269 83.381 86.4974 83.142 86.4015C82.8985 86.2997 82.7259 86.3041 82.7266 86.2798C82.7236 86.2665 82.9022 86.2252 83.1752 86.31C83.4415 86.389 83.8037 86.6265 83.9697 87.0449C84.1313 87.4654 84.0125 87.8881 83.8598 88.1198C83.7049 88.3611 83.5389 88.4407 83.533 88.4289Z" fill="#2F2E41"/>
<path d="M59.883 105.452L70.5513 114.583L83.6468 95.0181L92.1622 100.042C92.1622 100.042 79.4002 129.421 75.9407 132.016C72.4821 134.612 69.5641 133.939 65.1131 131.883C60.6621 129.829 44.8125 113.87 44.8125 113.87L59.883 105.452Z" fill="#FFBE9D"/>
<path d="M16.3409 90.5089C16.3409 90.5089 25.4111 90.6402 25.5424 101.945C25.6737 113.249 23.2339 128.371 23.2339 128.371L0.0839844 124.291C0.0839844 124.291 2.95541 103.246 5.40778 97.1851C7.87416 91.0859 12.5871 89.4812 16.3409 90.5089Z" fill="#FF6600"/>
<path d="M20.6451 82.3719L20.3566 84.2156C20.3566 84.2156 7.98342 92.3902 7.284 94.5002C6.19947 97.7723 8.56478 125.408 9.60948 133.24C10.6534 141.072 10.8652 158.335 10.8652 158.335C10.1053 160.367 9.24279 162.201 8.95654 165.038C8.67397 167.851 10.8652 170.419 10.8652 170.419C24.14 174.751 40.357 171.425 57.9013 167.426L57.7368 162.452L52.0013 108.424C52.0013 108.424 53.6724 94.3807 46.8214 90.3156C46.0696 89.8692 40.0936 86.474 40.0936 86.474L20.6451 82.3719Z" fill="#FF6600"/>
<path d="M50.9296 92.1526C48.7606 90.3974 44.7264 89.4435 42.4245 91.0216C41.4013 91.7232 40.2053 92.7841 39.6321 94.4596C37.6674 100.205 38.8419 106.381 40.4141 110.966C41.9863 115.55 49.5832 124.38 49.5832 124.38L68.3544 112.987C68.3544 112.987 55.7908 97.759 54.4805 96.186C53.7974 95.3656 52.1344 93.1265 50.9296 92.1526Z" fill="#FF6600"/>
</svg>
