<svg xmlns="http://www.w3.org/2000/svg" xmlns:xlink="http://www.w3.org/1999/xlink" width="32" height="32" viewBox="0 0 32 32">
  <defs>
    <clipPath id="clip-path">
      <rect x="1" y="1" width="32" height="32" fill="none"/>
    </clipPath>
  </defs>
  <g id="Scroll_Group_253" data-name="Scroll Group 253" transform="translate(-1 -1)" clip-path="url(#clip-path)" style="mix-blend-mode: normal;isolation: isolate">
    <g id="Group_52545" data-name="Group 52545" transform="translate(0.9 3.08)">
      <path id="Path_32980" data-name="Path 32980" d="M9.551,18.814l-2.6,2.647V19.176a.53.53,0,0,0-.143-.364.512.512,0,0,0-.35-.161,1.468,1.468,0,0,1-1.013-.46,1.522,1.522,0,0,1-.415-1.049V6.564a1.531,1.531,0,0,1,.436-1.07,1.476,1.476,0,0,1,1.049-.445H22.539a1.476,1.476,0,0,1,1.052.444,1.531,1.531,0,0,1,.436,1.071v4.146h1.037V6.564a2.592,2.592,0,0,0-.739-1.812A2.5,2.5,0,0,0,22.544,4H6.518a2.5,2.5,0,0,0-1.779.752A2.592,2.592,0,0,0,4,6.564V17.145a2.581,2.581,0,0,0,.537,1.583,2.5,2.5,0,0,0,1.385.9v3.1a.531.531,0,0,0,.087.291.517.517,0,0,0,.233.194.5.5,0,0,0,.2.04.508.508,0,0,0,.2-.04.516.516,0,0,0,.168-.116l3.329-3.39H12.7V18.661H9.915A.516.516,0,0,0,9.551,18.814Z" fill="#fff"/>
      <path id="Path_32981" data-name="Path 32981" d="M25.99,10.717H14.48a2.014,2.014,0,0,0-2.011,2.011v7.463A2.014,2.014,0,0,0,14.48,22.2h8.832l2.331,2.331a.573.573,0,0,0,.978-.4V22.1A2,2,0,0,0,28,20.19V12.728a2.013,2.013,0,0,0-2.011-2.011Zm.867,9.474a.863.863,0,0,1-.832.861.573.573,0,0,0-.548.572v1.122l-1.522-1.522a.572.572,0,0,0-.4-.167H14.481a.868.868,0,0,1-.866-.866V12.727a.868.868,0,0,1,.866-.866H25.99a.868.868,0,0,1,.866.866Z" fill="#fff"/>
      <path id="Path_32982" data-name="Path 32982" d="M24.885,14.591a.4.4,0,0,0-.4-.4h-8.5a.4.4,0,0,0-.4.4v.2a.4.4,0,0,0,.4.4h8.5a.4.4,0,0,0,.4-.4Z" fill="#fff"/>
      <path id="Path_32983" data-name="Path 32983" d="M24.885,16.591a.4.4,0,0,0-.4-.4h-8.5a.4.4,0,0,0-.4.4v.2a.4.4,0,0,0,.4.4h8.5a.4.4,0,0,0,.4-.4Z" fill="#fff"/>
      <path id="Path_32984" data-name="Path 32984" d="M24.885,18.591a.4.4,0,0,0-.4-.4h-8.5a.4.4,0,0,0-.4.4v.2a.4.4,0,0,0,.4.4h8.5a.4.4,0,0,0,.4-.4Z" fill="#fff"/>
    </g>
  </g>
</svg>
