<svg xmlns="http://www.w3.org/2000/svg" xmlns:xlink="http://www.w3.org/1999/xlink" width="32" height="32" viewBox="0 0 32 32">
  <defs>
    <clipPath id="clip-path">
      <rect x="1" y="1" width="32" height="32" fill="none"/>
    </clipPath>
  </defs>
  <g id="Scroll_Group_249" data-name="Scroll Group 249" transform="translate(-1 -1)" clip-path="url(#clip-path)" style="mix-blend-mode: normal;isolation: isolate">
    <g id="Group_52541" data-name="Group 52541" transform="translate(4915.213 646.2)">
      <path id="Path_32931" data-name="Path 32931" d="M128.66,64.621a2.67,2.67,0,1,0-2.66-2.67A2.673,2.673,0,0,0,128.66,64.621Zm0-4.322A1.662,1.662,0,1,1,127,61.961,1.667,1.667,0,0,1,128.66,60.3Z" transform="translate(-5034.233 -698.101)" fill="#fff" stroke="#fff" stroke-width="0.4"/>
      <path id="Path_32932" data-name="Path 32932" d="M93.788,194.978a.51.51,0,0,0-.538.469L92.84,201.3c0,.02-.01.029-.01.049l-.372,5.7a.416.416,0,0,1-.411.391H89.212a.409.409,0,0,1-.411-.391l-.372-5.7a.5.5,0,0,0-.352-.45,2.149,2.149,0,0,1-.469-.176,2.237,2.237,0,0,1-.068-.528l-.342-6.043v-.01c.636-.186,1.261-.391,1.9-.6.284.332.567.655.86.988l.3.342a.52.52,0,0,0,.381.176.487.487,0,0,0,.381-.176l.352-.4c.284-.323.548-.626.812-.939l4.381.988a.4.4,0,0,0,.215,0l3.95-.812a.5.5,0,0,0-.205-.988l-3.843.792-4.322-.978a.166.166,0,0,0-.068-.01,1,1,0,0,0-.821.293c-.274.323-.548.636-.831.958-.284-.323-.557-.636-.831-.958a.82.82,0,0,0-.929-.274q-1.012.337-2.024.645a.891.891,0,0,0-.665.9v.117l.332,5.965.01.1c.059.87.186,1.2.919,1.486l.352,5.368a1.429,1.429,0,0,0,1.418,1.33h2.836a1.429,1.429,0,0,0,1.418-1.33l.372-5.652a.088.088,0,0,1,.01-.049l.411-5.906a.536.536,0,0,0-.479-.548Z" transform="translate(-4996.203 -825.369)" fill="#fff" stroke="#fff" stroke-width="0.4"/>
      <path id="Path_32933" data-name="Path 32933" d="M193.281,10.49H174.633a.511.511,0,0,0-.508.508.5.5,0,0,0,.508.508h18.139v13.1H179.4a.508.508,0,0,0,0,1.017H193.28a.511.511,0,0,0,.508-.508V11a.511.511,0,0,0-.508-.508Z" transform="translate(-5080.207 -651.49)" fill="#fff" stroke="#fff" stroke-width="0.4"/>
    </g>
  </g>
</svg>
