<svg xmlns="http://www.w3.org/2000/svg" xmlns:xlink="http://www.w3.org/1999/xlink" width="32" height="32" viewBox="0 0 32 32">
  <defs>
    <clipPath id="clip-path">
      <rect x="1" y="1" width="32" height="32" fill="none"/>
    </clipPath>
  </defs>
  <g id="Scroll_Group_225" data-name="Scroll Group 225" transform="translate(-1 -1)" clip-path="url(#clip-path)" style="mix-blend-mode: normal;isolation: isolate">
    <g id="Group_52313" data-name="Group 52313" transform="translate(-1738.886 -576.585)">
      <path id="Path_32437" data-name="Path 32437" d="M5.982,448.78a.2.2,0,0,1,.2-.2H18.424v2.482a1.5,1.5,0,0,0,1.5,1.5h2.482v5.727a.5.5,0,1,0,.993,0v-6.307a1.5,1.5,0,0,0-.439-1.061l-2.9-2.9a1.5,1.5,0,0,0-1.061-.44H6.486a1.5,1.5,0,0,0-1.5,1.5v20.889a1.5,1.5,0,0,0,1.5,1.5H18.135a.5.5,0,0,0,0-1H6.182a.2.2,0,0,1-.2-.2ZM22.2,451.565h-2.78v-2.78Z" transform="translate(1740 134.1)" fill="#fbb315"/>
      <path id="Path_32438" data-name="Path 32438" d="M25.4,462.916l.835-.835a.2.2,0,0,0,0-.283l-.42-.421a.2.2,0,0,0-.283,0l-.934.934a4.968,4.968,0,0,0-2.08-.7v-1.031h.819a.2.2,0,0,0,.2-.2v-.6a.2.2,0,0,0-.2-.2H20.745a.2.2,0,0,0-.2.2v.6a.2.2,0,0,0,.2.2h.771v1.031a5.015,5.015,0,1,0,3.881,1.3Zm-5.926,6.767a4.008,4.008,0,1,0-1.391-2.315A4.011,4.011,0,0,0,19.47,469.683Z" transform="translate(1740 134.1)" fill="#fbb315" fill-rule="evenodd"/>
      <path id="Path_32439" data-name="Path 32439" d="M22.549,463.985a.4.4,0,0,0-.4-.4h-.2a.4.4,0,0,0-.4.4v2.2a.4.4,0,0,0,.4.4h.2a.4.4,0,0,0,.4-.4Z" transform="translate(1740 134.1)" fill="#fbb315"/>
      <path id="Path_32440" data-name="Path 32440" d="M9.983,454.785a.2.2,0,0,0-.2-.2h-.6a.2.2,0,0,0-.2.2v.6a.2.2,0,0,0,.2.2h.6a.2.2,0,0,0,.2-.2Z" transform="translate(1740 134.1)" fill="#fbb315"/>
      <path id="Path_32441" data-name="Path 32441" d="M17.452,454.985a.4.4,0,0,0-.4-.4h-5.67a.4.4,0,0,0-.4.4v.2a.4.4,0,0,0,.4.4h5.67a.4.4,0,0,0,.4-.4Z" transform="translate(1740 134.1)" fill="#fbb315"/>
      <path id="Path_32442" data-name="Path 32442" d="M9.983,457.785a.2.2,0,0,0-.2-.2h-.6a.2.2,0,0,0-.2.2v.6a.2.2,0,0,0,.2.2h.6a.2.2,0,0,0,.2-.2Z" transform="translate(1740 134.1)" fill="#fbb315"/>
      <path id="Path_32443" data-name="Path 32443" d="M17.452,457.985a.4.4,0,0,0-.4-.4h-5.67a.4.4,0,0,0-.4.4v.2a.4.4,0,0,0,.4.4h5.67a.4.4,0,0,0,.4-.4Z" transform="translate(1740 134.1)" fill="#fbb315"/>
      <path id="Path_32444" data-name="Path 32444" d="M9.983,460.781a.2.2,0,0,0-.2-.2h-.6a.2.2,0,0,0-.2.2v.6a.2.2,0,0,0,.2.2h.6a.2.2,0,0,0,.2-.2Z" transform="translate(1740 134.1)" fill="#fbb315"/>
      <path id="Path_32445" data-name="Path 32445" d="M17.452,460.981a.4.4,0,0,0-.4-.4h-5.67a.4.4,0,0,0-.4.4v.2a.4.4,0,0,0,.4.4h5.67a.4.4,0,0,0,.4-.4Z" transform="translate(1740 134.1)" fill="#fbb315"/>
      <path id="Path_32446" data-name="Path 32446" d="M5.982,448.78a.2.2,0,0,1,.2-.2H18.424v2.482a1.5,1.5,0,0,0,1.5,1.5h2.482v5.727a.5.5,0,1,0,.993,0v-6.307a1.5,1.5,0,0,0-.439-1.061l-2.9-2.9a1.5,1.5,0,0,0-1.061-.44H6.486a1.5,1.5,0,0,0-1.5,1.5v20.889a1.5,1.5,0,0,0,1.5,1.5H18.135a.5.5,0,0,0,0-1H6.182a.2.2,0,0,1-.2-.2ZM22.2,451.565h-2.78v-2.78Z" transform="translate(1740 134.1)" fill="none" stroke="#fbb315" stroke-width="0.2"/>
      <path id="Path_32447" data-name="Path 32447" d="M25.4,462.916l.835-.835a.2.2,0,0,0,0-.283l-.42-.421a.2.2,0,0,0-.283,0l-.934.934a4.968,4.968,0,0,0-2.08-.7v-1.031h.819a.2.2,0,0,0,.2-.2v-.6a.2.2,0,0,0-.2-.2H20.745a.2.2,0,0,0-.2.2v.6a.2.2,0,0,0,.2.2h.771v1.031a5.015,5.015,0,1,0,3.881,1.3Zm-5.926,6.767a4.008,4.008,0,1,0-1.391-2.315A4.011,4.011,0,0,0,19.47,469.683Z" transform="translate(1740 134.1)" fill="none" stroke="#fbb315" stroke-width="0.2" fill-rule="evenodd"/>
      <path id="Path_32448" data-name="Path 32448" d="M22.549,463.985a.4.4,0,0,0-.4-.4h-.2a.4.4,0,0,0-.4.4v2.2a.4.4,0,0,0,.4.4h.2a.4.4,0,0,0,.4-.4Z" transform="translate(1740 134.1)" fill="none" stroke="#fbb315" stroke-width="0.2"/>
      <path id="Path_32449" data-name="Path 32449" d="M9.983,454.785a.2.2,0,0,0-.2-.2h-.6a.2.2,0,0,0-.2.2v.6a.2.2,0,0,0,.2.2h.6a.2.2,0,0,0,.2-.2Z" transform="translate(1740 134.1)" fill="none" stroke="#fbb315" stroke-width="0.2"/>
      <path id="Path_32450" data-name="Path 32450" d="M17.452,454.985a.4.4,0,0,0-.4-.4h-5.67a.4.4,0,0,0-.4.4v.2a.4.4,0,0,0,.4.4h5.67a.4.4,0,0,0,.4-.4Z" transform="translate(1740 134.1)" fill="none" stroke="#fbb315" stroke-width="0.2"/>
      <path id="Path_32451" data-name="Path 32451" d="M9.983,457.785a.2.2,0,0,0-.2-.2h-.6a.2.2,0,0,0-.2.2v.6a.2.2,0,0,0,.2.2h.6a.2.2,0,0,0,.2-.2Z" transform="translate(1740 134.1)" fill="none" stroke="#fbb315" stroke-width="0.2"/>
      <path id="Path_32452" data-name="Path 32452" d="M17.452,457.985a.4.4,0,0,0-.4-.4h-5.67a.4.4,0,0,0-.4.4v.2a.4.4,0,0,0,.4.4h5.67a.4.4,0,0,0,.4-.4Z" transform="translate(1740 134.1)" fill="none" stroke="#fbb315" stroke-width="0.2"/>
      <path id="Path_32453" data-name="Path 32453" d="M9.983,460.781a.2.2,0,0,0-.2-.2h-.6a.2.2,0,0,0-.2.2v.6a.2.2,0,0,0,.2.2h.6a.2.2,0,0,0,.2-.2Z" transform="translate(1740 134.1)" fill="none" stroke="#fbb315" stroke-width="0.2"/>
      <path id="Path_32454" data-name="Path 32454" d="M17.452,460.981a.4.4,0,0,0-.4-.4h-5.67a.4.4,0,0,0-.4.4v.2a.4.4,0,0,0,.4.4h5.67a.4.4,0,0,0,.4-.4Z" transform="translate(1740 134.1)" fill="none" stroke="#fbb315" stroke-width="0.2"/>
    </g>
  </g>
</svg>
