<svg xmlns="http://www.w3.org/2000/svg" xmlns:xlink="http://www.w3.org/1999/xlink" width="32" height="32" viewBox="0 0 32 32">
  <defs>
    <clipPath id="clip-path">
      <rect x="1" y="1" width="32" height="32" fill="none"/>
    </clipPath>
  </defs>
  <g id="Scroll_Group_227" data-name="Scroll Group 227" transform="translate(-1 -1)" clip-path="url(#clip-path)" style="mix-blend-mode: normal;isolation: isolate">
    <g id="Group_52308" data-name="Group 52308" transform="translate(-1739 -299.1)">
      <path id="Path_32411" data-name="Path 32411" d="M9.551,186.814l-2.6,2.647v-2.285a.527.527,0,0,0-.143-.363.512.512,0,0,0-.35-.161,1.471,1.471,0,0,1-1.013-.46,1.521,1.521,0,0,1-.415-1.049V174.564a1.533,1.533,0,0,1,.436-1.071,1.468,1.468,0,0,1,.48-.327,1.483,1.483,0,0,1,.569-.117H22.539a1.474,1.474,0,0,1,1.052.444,1.53,1.53,0,0,1,.436,1.071v4.145h1.037v-4.145a2.59,2.59,0,0,0-.739-1.812A2.5,2.5,0,0,0,22.544,172H6.518a2.5,2.5,0,0,0-1.779.752A2.593,2.593,0,0,0,4,174.564v10.581a2.583,2.583,0,0,0,.537,1.583,2.507,2.507,0,0,0,1.385.9v3.1a.533.533,0,0,0,.087.292.52.52,0,0,0,.233.193.48.48,0,0,0,.2.04.5.5,0,0,0,.2-.039.51.51,0,0,0,.168-.117l3.329-3.39H12.7v-1.048H9.915A.514.514,0,0,0,9.551,186.814Z" transform="translate(1740 134.1)" fill="#fbb315"/>
      <path id="Path_32412" data-name="Path 32412" d="M25.99,178.717H14.48a2.014,2.014,0,0,0-2.011,2.011v7.463A2.014,2.014,0,0,0,14.48,190.2h8.832l2.331,2.331a.573.573,0,0,0,.978-.4V190.1a2,2,0,0,0,1.38-1.9v-7.462a2.012,2.012,0,0,0-2.011-2.011Zm.867,9.474a.861.861,0,0,1-.832.861.573.573,0,0,0-.548.573v1.121l-1.522-1.522a.559.559,0,0,0-.186-.123.567.567,0,0,0-.219-.044H14.481a.868.868,0,0,1-.866-.866v-7.464a.867.867,0,0,1,.866-.866H25.99a.867.867,0,0,1,.866.866Z" transform="translate(1740 134.1)" fill="#fbb315"/>
      <path id="Path_32413" data-name="Path 32413" d="M24.885,182.191h-9.3v1.145h9.3Z" transform="translate(1740 134.1)" fill="#fbb315"/>
      <path id="Path_32414" data-name="Path 32414" d="M24.885,184.312h-9.3v1.145h9.3Z" transform="translate(1740 134.1)" fill="#fbb315"/>
      <path id="Path_32415" data-name="Path 32415" d="M24.885,186.433h-9.3v1.143h9.3Z" transform="translate(1740 134.1)" fill="#fbb315"/>
    </g>
  </g>
</svg>
