<svg xmlns="http://www.w3.org/2000/svg" xmlns:xlink="http://www.w3.org/1999/xlink" width="32" height="32" viewBox="0 0 32 32">
  <defs>
    <clipPath id="clip-path">
      <rect width="32" height="32" fill="none"/>
    </clipPath>
  </defs>
  <g id="Scroll_Group_248" data-name="Scroll Group 248" clip-path="url(#clip-path)" style="mix-blend-mode: normal;isolation: isolate">
    <g id="Group_52540" data-name="Group 52540" transform="translate(-159.083 -476.557)">
      <path id="Path_32926" data-name="Path 32926" d="M28.748,16.468H6.575a.917.917,0,0,0-.915.915v15.38a.908.908,0,0,0,.91.91h7.918l.022.035-.987,2.105a.354.354,0,0,0,.321.507h7.652a.356.356,0,0,0,.321-.507l-.987-2.105.022-.035h7.912a.917.917,0,0,0,.915-.915V17.383a.921.921,0,0,0-.929-.915Zm-.5,13.287a.232.232,0,0,1-.232.232H7.311a.232.232,0,0,1-.232-.232V18.21a.232.232,0,0,1,.232-.232H28.02a.232.232,0,0,1,.232.232V29.755Z" transform="translate(157.423 466.315)" fill="none" stroke="#fff" stroke-width="1"/>
      <path id="Path_32927" data-name="Path 32927" d="M17.6,19.821l-.15.06-2.157.871a.21.21,0,0,1-.139,0l-2.165-.873-.139-.057a.093.093,0,0,0-.089.008.091.091,0,0,0-.031.034.092.092,0,0,0-.01.045v.8a.578.578,0,0,0-.051.571c.155.536.4.588.525.577a2.89,2.89,0,0,0,1.79,1.8.683.683,0,0,0,.234.037.707.707,0,0,0,.237-.037,2.9,2.9,0,0,0,1.791-1.8c.125.011.37-.04.525-.577a.567.567,0,0,0-.051-.567v-.8a.087.087,0,0,0-.121-.089Z" transform="translate(157.839 468.138)" fill="none" stroke="#fff" stroke-width="1"/>
      <path id="Path_32928" data-name="Path 32928" d="M12.045,19.43,15.4,20.786a.175.175,0,0,0,.139,0l2.079-.844,1.268-.512a.089.089,0,0,0,0-.164l-3.357-1.361a.2.2,0,0,0-.139,0l-3.357,1.361a.088.088,0,0,0-.05.085A.088.088,0,0,0,12,19.4.089.089,0,0,0,12.045,19.43Z" transform="translate(157.599 467.529)" fill="none" stroke="#fff" stroke-width="1"/>
      <path id="Path_32929" data-name="Path 32929" d="M16.6,22h.277a.008.008,0,0,0,.008-.011l-.158-.832a.6.6,0,0,1,0-.08V21.01a.475.475,0,0,0,0-.06.7.7,0,0,0,0-.076V19.822a.65.65,0,0,0,0-.073v-.085c0-.017,0-.033-.025-.017l-.087.043c-.028.014-.033.022-.033.046v1.339a.364.364,0,0,1-.008.073l-.139.832s0,.011.008.011h.12l0,0,0,0v0l.043-.2c0-.011.017-.008.017,0v.2Z" transform="translate(159.241 468.086)" fill="none" stroke="#fff" stroke-width="1"/>
      <path id="Path_32930" data-name="Path 32930" d="M18.742,23.533c-.251-.054-.406-.071-.406-.071a1.758,1.758,0,0,1-.912-.348.158.158,0,0,0-.243.057l-1.288,1.486a.084.084,0,0,1-.028.021.083.083,0,0,1-.068,0,.082.082,0,0,1-.028-.021l-1.286-1.486a.161.161,0,0,0-.044-.056.16.16,0,0,0-.135-.031.157.157,0,0,0-.064.03,1.716,1.716,0,0,1-.912.348s-.155.019-.406.071a2.137,2.137,0,0,0-1.83,2.537s.036.365.087.937h9.306c.054-.571.087-.937.087-.937a2.139,2.139,0,0,0-1.83-2.537Z" transform="translate(157.248 469.285)" fill="none" stroke="#fff" stroke-width="1"/>
    </g>
  </g>
</svg>
