<svg xmlns="http://www.w3.org/2000/svg" xmlns:xlink="http://www.w3.org/1999/xlink" width="32" height="32" viewBox="0 0 32 32">
  <defs>
    <clipPath id="clip-path">
      <rect x="1" y="1" width="32" height="32" fill="none"/>
    </clipPath>
  </defs>
  <g id="Scroll_Group_226" data-name="Scroll Group 226" transform="translate(-1 -1)" clip-path="url(#clip-path)" style="mix-blend-mode: normal;isolation: isolate">
    <g id="Group_52331" data-name="Group 52331" transform="translate(-1738.9 -134)">
      <path id="Path_32373" data-name="Path 32373" d="M19.932,28H4.982A.983.983,0,0,1,4,27.018V6.99a.983.983,0,0,1,.982-.982h14.95a.983.983,0,0,1,.982.982V27.018A.983.983,0,0,1,19.932,28ZM4.982,6.758a.235.235,0,0,0-.232.232V27.018a.23.23,0,0,0,.232.232h14.95a.23.23,0,0,0,.232-.232V6.99a.235.235,0,0,0-.232-.232Z" transform="translate(1740 134.1)" fill="#fbb315"/>
      <path id="Path_32374" data-name="Path 32374" d="M22.122,25.992H20.539a.375.375,0,0,1-.375-.375V6.99a.235.235,0,0,0-.232-.232H6.565a.375.375,0,0,1-.375-.375v-1.4A.983.983,0,0,1,7.172,4h14.95a.983.983,0,0,1,.982.982V25.01A.983.983,0,0,1,22.122,25.992Zm-1.208-.75h1.208a.235.235,0,0,0,.232-.232V4.982a.229.229,0,0,0-.232-.232H7.172a.229.229,0,0,0-.232.232V6.008H19.932a.983.983,0,0,1,.982.982Z" transform="translate(1740 134.1)" fill="#fbb315"/>
      <path id="Path_32375" data-name="Path 32375" d="M9.74,12.135H7.116a.72.72,0,0,1-.719-.719V8.8a.72.72,0,0,1,.719-.719H9.74a.72.72,0,0,1,.719.719v2.62A.72.72,0,0,1,9.74,12.135Zm-2.593-.75H9.71V8.827H7.147Z" transform="translate(1740 134.1)" fill="#fbb315"/>
      <path id="Path_32376" data-name="Path 32376" d="M9.74,17.381H7.116a.72.72,0,0,1-.719-.719v-2.62a.72.72,0,0,1,.719-.719H9.74a.72.72,0,0,1,.719.719v2.62A.72.72,0,0,1,9.74,17.381Zm-2.593-.75H9.71V14.073H7.147Z" transform="translate(1740 134.1)" fill="#fbb315"/>
      <path id="Path_32377" data-name="Path 32377" d="M9.74,22.626H7.116a.72.72,0,0,1-.719-.719v-2.62a.72.72,0,0,1,.719-.719H9.74a.72.72,0,0,1,.719.719v2.62A.72.72,0,0,1,9.74,22.626Zm-2.593-.75H9.71V19.319H7.147Z" transform="translate(1740 134.1)" fill="#fbb315"/>
      <path id="Path_32378" data-name="Path 32378" d="M18.142,9.206H12.912a.375.375,0,1,1,0-.75h5.231a.375.375,0,1,1,0,.75Z" transform="translate(1740 134.1)" fill="#fbb315"/>
      <path id="Path_32379" data-name="Path 32379" d="M18.142,14.452H12.912a.375.375,0,0,1,0-.75h5.231a.375.375,0,0,1,0,.75Z" transform="translate(1740 134.1)" fill="#fbb315"/>
      <path id="Path_32380" data-name="Path 32380" d="M18.142,17H12.912a.375.375,0,0,1,0-.75h5.231a.375.375,0,0,1,0,.75Z" transform="translate(1740 134.1)" fill="#fbb315"/>
      <path id="Path_32381" data-name="Path 32381" d="M14.331,22.639a.374.374,0,0,1-.265-.11l-1.42-1.42a.375.375,0,0,1,.53-.53l1.155,1.155,2.688-2.688a.375.375,0,1,1,.53.53L14.6,22.529A.373.373,0,0,1,14.331,22.639Z" transform="translate(1740 134.1)" fill="#fbb315"/>
      <path id="Path_32382" data-name="Path 32382" d="M26.153,27.52a1.451,1.451,0,0,1-1.447-1.452V23.62a.375.375,0,0,1,.375-.375H27.23a.375.375,0,0,1,.375.375v2.448A1.454,1.454,0,0,1,26.153,27.52Zm-.7-3.525v2.073a.7.7,0,1,0,1.4,0V23.994Z" transform="translate(1740 134.1)" fill="#fbb315"/>
      <path id="Path_32383" data-name="Path 32383" d="M27.23,23.994H25.081a.375.375,0,0,1-.375-.375V12.391a1.176,1.176,0,0,1,.095-.449L25.807,9.56a.375.375,0,0,1,.691,0l1.012,2.382a1.176,1.176,0,0,1,.1.45V23.62A.375.375,0,0,1,27.23,23.994Zm-1.774-.75h1.4V12.392a.426.426,0,0,0-.036-.158l-.665-1.566-.662,1.567a.425.425,0,0,0-.036.157Z" transform="translate(1740 134.1)" fill="#fbb315"/>
      <path id="Path_32384" data-name="Path 32384" d="M19.932,6.058a.933.933,0,0,1,.932.932h.1a1.033,1.033,0,0,0-1.032-1.032Zm.282.932a.285.285,0,0,0-.282-.282v.1a.185.185,0,0,1,.182.182Zm-.282-.982v0Zm.982.982h0ZM4.982,6.758v-.1h0Zm15.182,20.26h0Zm0-1.4h0ZM6.565,6.758v-.1h0ZM20.914,25.242h-.1v.1h.1ZM6.94,6.008h-.1v.1h.1Zm.207,5.377h-.1v.1h.1Zm2.563,0v.1h.1v-.1Zm0-2.558h.1v-.1h-.1Zm-2.563,0v-.1h-.1v.1Zm0,7.8h-.1v.1h.1Zm2.563,0v.1h.1v-.1Zm0-2.558h.1v-.1h-.1Zm-2.563,0v-.1h-.1v.1Zm0,7.8h-.1v.1h.1Zm2.563,0v.1h.1v-.1Zm0-2.558h.1v-.1h-.1Zm-2.563,0v-.1h-.1v.1Zm6.919,3.21.071-.071h0Zm-1.42-1.42-.071.071h0Zm0-.53.071.071h0Zm.53,0-.071.071h0Zm1.155,1.155-.071.071.071.071L14.4,21.8Zm2.688-2.688-.071-.071Zm.53,0-.071.071h0Zm0,.53-.071-.071h0ZM14.6,22.529l-.071-.071h0Zm10.859,1.466v-.1h-.1v.1Zm1.4,0h.1v-.1h-.1Zm-2.149-11.6h0Zm.095-.449-.092-.039h0ZM25.807,9.56,25.9,9.6h0Zm.345-.229v-.1h0Zm.345.228-.092.039h0Zm1.012,2.382L27.6,11.9h0Zm.1.45h0ZM25.456,23.244h-.1v.1h.1Zm1.4,0v.1h.1v-.1Zm0-10.853h0Zm-.036-.158-.092.039h0Zm-.665-1.566.092-.039-.092-.217-.092.218Zm-.662,1.567.092.039h0Zm-.036.157h0ZM19.932,27.9H4.982v.2h14.95Zm-14.95,0a.883.883,0,0,1-.882-.882H3.9A1.083,1.083,0,0,0,4.982,28.1ZM4.1,27.018V6.99H3.9V27.018ZM4.1,6.99a.883.883,0,0,1,.882-.882v-.2A1.083,1.083,0,0,0,3.9,6.99Zm.882-.882h14.95v-.2H4.982Zm15.832.882V27.018h.2V6.99Zm0,20.028a.883.883,0,0,1-.882.882v.2a1.083,1.083,0,0,0,1.082-1.082ZM4.982,6.658a.335.335,0,0,0-.332.332h.2a.135.135,0,0,1,.132-.132ZM4.65,6.99V27.018h.2V6.99Zm0,20.028a.33.33,0,0,0,.332.332v-.2a.13.13,0,0,1-.132-.132Zm.332.332h14.95v-.2H4.982Zm14.95,0a.33.33,0,0,0,.332-.332h-.2a.13.13,0,0,1-.132.132Zm.332-.332V6.99h-.2V27.018Zm-.332-20.36H4.982v.2h14.95Zm2.19,19.234H20.539v.2h1.583Zm-1.583,0a.275.275,0,0,1-.275-.275h-.2a.475.475,0,0,0,.475.475Zm-.275-.275V6.99h-.2V25.617ZM19.932,6.658H6.565v.2H19.932Zm-13.367,0a.275.275,0,0,1-.275-.275h-.2a.475.475,0,0,0,.475.475ZM6.29,6.383v-1.4h-.2v1.4Zm0-1.4A.883.883,0,0,1,7.172,4.1V3.9A1.083,1.083,0,0,0,6.09,4.982ZM7.172,4.1h14.95V3.9H7.172Zm14.95,0A.883.883,0,0,1,23,4.982h.2A1.083,1.083,0,0,0,22.122,3.9ZM23,4.982V25.01h.2V4.982ZM23,25.01a.883.883,0,0,1-.882.882v.2A1.083,1.083,0,0,0,23.2,25.01Zm-2.09.332h1.208v-.2H20.914Zm1.208,0a.335.335,0,0,0,.332-.332h-.2a.135.135,0,0,1-.132.132Zm.332-.332V4.982h-.2V25.01Zm0-20.028a.329.329,0,0,0-.332-.332v.2a.129.129,0,0,1,.132.132Zm-.332-.332H7.172v.2h14.95Zm-14.95,0a.329.329,0,0,0-.332.332h.2a.129.129,0,0,1,.132-.132Zm-.332.332V6.008h.2V4.982Zm.1,1.126H19.932v-.2H6.94Zm13.874.882V25.242h.2V6.99ZM9.74,12.035H7.116v.2H9.74Zm-2.625,0a.62.62,0,0,1-.619-.619H6.3a.82.82,0,0,0,.819.819ZM6.5,11.416V8.8H6.3v2.62Zm0-2.62a.62.62,0,0,1,.619-.619v-.2A.82.82,0,0,0,6.3,8.8Zm.619-.619H9.74v-.2H7.116Zm2.625,0a.62.62,0,0,1,.619.619h.2a.82.82,0,0,0-.819-.819Zm.619.619v2.62h.2V8.8Zm0,2.62a.62.62,0,0,1-.619.619v.2a.82.82,0,0,0,.819-.819Zm-3.212.069H9.71v-.2H7.147Zm2.663-.1V8.827h-.2v2.558Zm-.1-2.658H7.147v.2H9.71Zm-2.663.1v2.558h.2V8.827ZM9.74,17.281H7.116v.2H9.74Zm-2.625,0a.62.62,0,0,1-.619-.619H6.3a.82.82,0,0,0,.819.819ZM6.5,16.662v-2.62H6.3v2.62Zm0-2.62a.62.62,0,0,1,.619-.619v-.2a.82.82,0,0,0-.819.819Zm.619-.619H9.74v-.2H7.116Zm2.625,0a.62.62,0,0,1,.619.619h.2a.82.82,0,0,0-.819-.819Zm.619.619v2.62h.2v-2.62Zm0,2.62a.62.62,0,0,1-.619.619v.2a.82.82,0,0,0,.819-.819Zm-3.212.069H9.71v-.2H7.147Zm2.663-.1V14.073h-.2v2.558Zm-.1-2.658H7.147v.2H9.71Zm-2.663.1v2.558h.2V14.073ZM9.74,22.526H7.116v.2H9.74Zm-2.625,0a.62.62,0,0,1-.619-.619H6.3a.82.82,0,0,0,.819.819ZM6.5,21.907v-2.62H6.3v2.62Zm0-2.62a.62.62,0,0,1,.619-.619v-.2a.82.82,0,0,0-.819.819Zm.619-.619H9.74v-.2H7.116Zm2.625,0a.62.62,0,0,1,.619.619h.2a.82.82,0,0,0-.819-.819Zm.619.619v2.62h.2v-2.62Zm0,2.62a.62.62,0,0,1-.619.619v.2a.82.82,0,0,0,.819-.819Zm-3.212.069H9.71v-.2H7.147Zm2.663-.1V19.319h-.2v2.558Zm-.1-2.658H7.147v.2H9.71Zm-2.663.1v2.558h.2V19.319Zm11.1-10.213H12.912v.2h5.231Zm-5.231,0a.275.275,0,0,1-.275-.275h-.2a.475.475,0,0,0,.475.475Zm-.275-.275a.275.275,0,0,1,.275-.275v-.2a.475.475,0,0,0-.475.475Zm.275-.275h5.231v-.2H12.912Zm5.231,0a.275.275,0,0,1,.275.275h.2a.475.475,0,0,0-.475-.475Zm.275.275a.275.275,0,0,1-.275.275v.2a.475.475,0,0,0,.475-.475Zm-.275,5.521H12.912v.2h5.231Zm-5.231,0a.275.275,0,0,1-.275-.275h-.2a.475.475,0,0,0,.475.475Zm-.275-.275a.275.275,0,0,1,.275-.275v-.2a.475.475,0,0,0-.475.475Zm.275-.275h5.231v-.2H12.912Zm5.231,0a.275.275,0,0,1,.275.275h.2a.475.475,0,0,0-.475-.475Zm.275.275a.275.275,0,0,1-.275.275v.2a.475.475,0,0,0,.475-.475ZM18.142,16.9H12.912v.2h5.231Zm-5.231,0a.275.275,0,0,1-.275-.275h-.2a.475.475,0,0,0,.475.475Zm-.275-.275a.275.275,0,0,1,.275-.275v-.2a.475.475,0,0,0-.475.475Zm.275-.275h5.231v-.2H12.912Zm5.231,0a.275.275,0,0,1,.275.275h.2a.475.475,0,0,0-.475-.475Zm.275.275a.275.275,0,0,1-.275.275v.2a.475.475,0,0,0,.475-.475Zm-4.086,5.913a.274.274,0,0,1-.194-.081L14,22.6a.474.474,0,0,0,.336.139Zm-.194-.081-1.42-1.42-.141.141L14,22.6Zm-1.42-1.42a.275.275,0,0,1,0-.389l-.141-.142a.475.475,0,0,0,0,.672Zm0-.389a.275.275,0,0,1,.389,0l.142-.141a.475.475,0,0,0-.672,0Zm.389,0L14.26,21.8l.141-.141-1.155-1.155ZM14.4,21.8l2.688-2.688-.141-.141L14.26,21.663Zm2.688-2.688a.275.275,0,0,1,.389,0l.142-.141a.475.475,0,0,0-.672,0Zm.389,0a.275.275,0,0,1,0,.389l.141.142a.475.475,0,0,0,0-.672Zm0,.389-2.953,2.953.141.141,2.953-2.953Zm-2.953,2.953a.273.273,0,0,1-.194.081v.2a.473.473,0,0,0,.336-.14ZM26.153,27.42a1.351,1.351,0,0,1-1.347-1.352h-.2a1.551,1.551,0,0,0,1.547,1.552Zm-1.347-1.352V23.62h-.2v2.448Zm0-2.448a.275.275,0,0,1,.275-.275v-.2a.475.475,0,0,0-.475.475Zm.275-.275H27.23v-.2H25.081Zm2.149,0a.275.275,0,0,1,.275.275h.2a.475.475,0,0,0-.475-.475Zm.275.275v2.448h.2V23.62Zm0,2.448a1.354,1.354,0,0,1-1.352,1.352v.2A1.554,1.554,0,0,0,27.7,26.067Zm-2.149-2.073v2.073h.2V23.994Zm0,2.073a.8.8,0,0,0,.8.8v-.2a.6.6,0,0,1-.6-.6Zm.8.8a.8.8,0,0,0,.8-.8h-.2a.6.6,0,0,1-.6.6Zm.8-.8V23.994h-.2v2.073Zm-.1-2.173h-1.4v.2h1.4Zm.375,0H25.081v.2H27.23Zm-2.149,0a.275.275,0,0,1-.275-.275h-.2a.475.475,0,0,0,.475.475Zm-.275-.275V12.391h-.2V23.62Zm0-11.228a1.074,1.074,0,0,1,.087-.41l-.184-.077a1.276,1.276,0,0,0-.1.488Zm.087-.41L25.9,9.6l-.184-.078L24.708,11.9ZM25.9,9.6a.275.275,0,0,1,.253-.168v-.2a.475.475,0,0,0-.437.29Zm.253-.168a.275.275,0,0,1,.253.167l.184-.078a.475.475,0,0,0-.437-.289Zm.253.167,1.012,2.382L27.6,11.9,26.59,9.52Zm1.011,2.382a1.076,1.076,0,0,1,.088.411h.2a1.275,1.275,0,0,0-.1-.489Zm.088.411V23.62h.2V12.391Zm0,11.228a.275.275,0,0,1-.275.275v.2a.475.475,0,0,0,.475-.475Zm-2.049-.275h1.4v-.2h-1.4Zm1.5-.1V12.392h-.2V23.244Zm0-10.853a.524.524,0,0,0-.045-.2l-.184.078a.328.328,0,0,1,.028.119Zm-.044-.2-.665-1.566-.184.078.665,1.566Zm-.849-1.566L25.4,12.2l.184.078.662-1.567ZM25.4,12.195a.526.526,0,0,0-.044.2h.2a.329.329,0,0,1,.028-.118Zm-.044.2V23.244h.2V12.392Z" transform="translate(1740 134.1)" fill="#fbb315"/>
    </g>
  </g>
</svg>
