<svg xmlns="http://www.w3.org/2000/svg" xmlns:xlink="http://www.w3.org/1999/xlink" width="32" height="32" viewBox="0 0 32 32">
  <defs>
    <clipPath id="clip-path">
      <rect x="1" y="1" width="32" height="32" fill="none"/>
    </clipPath>
  </defs>
  <g id="Scroll_Group_254" data-name="Scroll Group 254" transform="translate(-1 -1)" clip-path="url(#clip-path)" style="mix-blend-mode: normal;isolation: isolate">
    <g id="Group_52546" data-name="Group 52546" transform="translate(-1739 -744.266)">
      <path id="Path_32985" data-name="Path 32985" d="M22.9,631.241V618.755a1.612,1.612,0,0,0-.459-1.121,1.549,1.549,0,0,0-1.1-.468H5.558a1.549,1.549,0,0,0-1.1.468A1.611,1.611,0,0,0,4,618.755v12.486a1.615,1.615,0,0,0,.459,1.121,1.549,1.549,0,0,0,1.1.468H21.34a1.553,1.553,0,0,0,1.1-.467A1.615,1.615,0,0,0,22.9,631.241ZM5.558,618.449H21.34a.3.3,0,0,1,.212.091.317.317,0,0,1,.09.216v2H5.231v-2a.319.319,0,0,1,.028-.122.327.327,0,0,1,.072-.1.332.332,0,0,1,.105-.065A.316.316,0,0,1,5.558,618.449Zm-.327,12.792v-9.2H21.616v9.205a.313.313,0,0,1-.09.216.3.3,0,0,1-.212.091H5.558a.313.313,0,0,1-.3-.185.326.326,0,0,1-.028-.122M7.795,619.6a.623.623,0,0,1,.1-.342.6.6,0,0,1,.271-.226A.587.587,0,0,1,8.516,619a.594.594,0,0,1,.309.168.62.62,0,0,1,.165.315.628.628,0,0,1-.035.356.612.612,0,0,1-.222.276.593.593,0,0,1-.335.1.608.608,0,0,1-.424-.183A.63.63,0,0,1,7.795,619.6Zm2.01,0a.623.623,0,0,1,.1-.342.6.6,0,0,1,.271-.226.586.586,0,0,1,.349-.035.593.593,0,0,1,.309.168.62.62,0,0,1,.165.315.63.63,0,0,1-.034.356.617.617,0,0,1-.222.276.6.6,0,0,1-.335.1.609.609,0,0,1-.424-.183A.63.63,0,0,1,9.8,619.6Zm-4.021,0a.624.624,0,0,1,.1-.341.6.6,0,0,1,.27-.227A.594.594,0,0,1,6.5,619a.6.6,0,0,1,.309.168.62.62,0,0,1,.166.314.629.629,0,0,1-.033.356.614.614,0,0,1-.221.276.6.6,0,0,1-.334.106.608.608,0,0,1-.426-.182A.631.631,0,0,1,5.784,619.6ZM23.9,635.5H8.146a.625.625,0,0,1-.432-.194.652.652,0,0,1,0-.894.625.625,0,0,1,.432-.194H23.929a.3.3,0,0,0,.212-.091.316.316,0,0,0,.089-.217V621.4a.648.648,0,0,1,.191-.441.62.62,0,0,1,.875,0,.648.648,0,0,1,.19.441v12.486a1.633,1.633,0,0,1-.119.619,1.6,1.6,0,0,1-.343.525,1.578,1.578,0,0,1-.514.35A1.544,1.544,0,0,1,23.9,635.5ZM28,623.961v12.485a1.616,1.616,0,0,1-.459,1.122,1.551,1.551,0,0,1-1.1.467H10.659a.621.621,0,0,1-.432-.194.65.65,0,0,1,0-.893.621.621,0,0,1,.432-.194H26.441a.3.3,0,0,0,.212-.092.314.314,0,0,0,.09-.216V623.96a.647.647,0,0,1,.19-.441.62.62,0,0,1,.875,0,.647.647,0,0,1,.191.441Z" transform="translate(1740 134.1)"/>
    </g>
  </g>
</svg>
