<svg xmlns="http://www.w3.org/2000/svg" xmlns:xlink="http://www.w3.org/1999/xlink" width="32" height="32" viewBox="0 0 32 32">
  <defs>
    <clipPath id="clip-path">
      <rect x="1" y="1" width="32" height="32" fill="none"/>
    </clipPath>
  </defs>
  <g id="Scroll_Group_223" data-name="Scroll Group 223" transform="translate(-1 -1)" opacity="0.9" clip-path="url(#clip-path)" style="mix-blend-mode: normal;isolation: isolate">
    <g id="Group_52306" data-name="Group 52306" transform="translate(4.1 5.1)">
      <path id="Path_32385" data-name="Path 32385" d="M7.244,76.374a.9.9,0,0,0,.419-.113l3.012-1.738a.7.7,0,0,0,0-1.279L7.647,71.5a.882.882,0,0,0-.4-.1.676.676,0,0,0-.686.71v3.558A.676.676,0,0,0,7.244,76.374Zm.187-3.991,2.6,1.5-2.6,1.5Z" transform="translate(-3 -60)" fill="#fbb315"/>
      <path id="Path_32386" data-name="Path 32386" d="M12.368,77.575H6.679a.431.431,0,0,0-.859,0H5.279a.437.437,0,0,0,0,.874H5.82a.431.431,0,0,0,.859,0h5.689a.437.437,0,0,0,0-.874Z" transform="translate(-3 -60)" fill="#fbb315"/>
      <path id="Path_32387" data-name="Path 32387" d="M28.26,64.285H26.1V61.057A1.082,1.082,0,0,0,25,60H7.2A1.084,1.084,0,0,0,6.1,61.057v7.978H3.8a.8.8,0,0,0-.8.8V79.884a.8.8,0,0,0,.8.8H6.1v2.041A1.084,1.084,0,0,0,7.2,83.779H25a1.082,1.082,0,0,0,1.1-1.056V74.265h2.16a.742.742,0,0,0,.74-.741v-8.5A.742.742,0,0,0,28.26,64.285Zm-.134,6.567-2-2.389a.437.437,0,0,0-.656-.017l-2.035,2.195L22.024,69.41a.437.437,0,0,0-.6.023L19.9,70.988V65.16h8.228ZM3.875,69.909h9.9v9.9h-9.9ZM25.225,82.723A.213.213,0,0,1,25,82.9H7.206a.217.217,0,0,1-.232-.182V80.682h6.877a.8.8,0,0,0,.8-.8V69.831a.8.8,0,0,0-.8-.8H6.973V61.056a.218.218,0,0,1,.232-.182H25a.213.213,0,0,1,.23.182v3.229H19.764a.742.742,0,0,0-.74.742v8.5a.742.742,0,0,0,.74.741h5.461ZM19.9,73.39V72.235l1.862-1.9,1.422,1.241a.438.438,0,0,0,.608-.032l1.986-2.142,2.35,2.81V73.39Z" transform="translate(-3 -60)" fill="#fbb315" fill-rule="evenodd"/>
      <path id="Path_32388" data-name="Path 32388" d="M23.3,68.759a1.289,1.289,0,1,0-1.288-1.29A1.292,1.292,0,0,0,23.3,68.759Zm0-1.7a.415.415,0,1,1-.414.414A.415.415,0,0,1,23.3,67.055Z" transform="translate(-3 -60)" fill="#fbb315"/>
      <path id="Path_32389" data-name="Path 32389" d="M9.724,65.413h6.448a.437.437,0,0,0,0-.874H9.724a.437.437,0,0,0,0,.874Z" transform="translate(-3 -60)" fill="#fbb315"/>
      <path id="Path_32390" data-name="Path 32390" d="M16.609,67.087a.437.437,0,0,0-.437-.437H9.724a.437.437,0,0,0,0,.875h6.448A.437.437,0,0,0,16.609,67.087Z" transform="translate(-3 -60)" fill="#fbb315"/>
      <path id="Path_32391" data-name="Path 32391" d="M15.735,76.693a.437.437,0,0,0,.437.437h6.447a.437.437,0,0,0,0-.874H16.172A.437.437,0,0,0,15.735,76.693Z" transform="translate(-3 -60)" fill="#fbb315"/>
      <path id="Path_32392" data-name="Path 32392" d="M22.619,78.367H16.172a.437.437,0,1,0,0,.875h6.447a.437.437,0,0,0,0-.875Z" transform="translate(-3 -60)" fill="#fbb315"/>
      <path id="Path_32393" data-name="Path 32393" d="M7.244,76.374a.9.9,0,0,0,.419-.113l3.012-1.738a.7.7,0,0,0,0-1.279L7.647,71.5a.882.882,0,0,0-.4-.1.676.676,0,0,0-.686.71v3.558A.676.676,0,0,0,7.244,76.374Zm.187-3.991,2.6,1.5-2.6,1.5Z" transform="translate(-3 -60)" fill="none" stroke="#fbb315" stroke-width="0.2"/>
      <path id="Path_32394" data-name="Path 32394" d="M12.368,77.575H6.679a.431.431,0,0,0-.859,0H5.279a.437.437,0,0,0,0,.874H5.82a.431.431,0,0,0,.859,0h5.689a.437.437,0,0,0,0-.874Z" transform="translate(-3 -60)" fill="none" stroke="#fbb315" stroke-width="0.2"/>
      <path id="Path_32395" data-name="Path 32395" d="M28.26,64.285H26.1V61.057A1.082,1.082,0,0,0,25,60H7.2A1.084,1.084,0,0,0,6.1,61.057v7.978H3.8a.8.8,0,0,0-.8.8V79.884a.8.8,0,0,0,.8.8H6.1v2.041A1.084,1.084,0,0,0,7.2,83.779H25a1.082,1.082,0,0,0,1.1-1.056V74.265h2.16a.742.742,0,0,0,.74-.741v-8.5A.742.742,0,0,0,28.26,64.285Zm-.134,6.567-2-2.389a.437.437,0,0,0-.656-.017l-2.035,2.195L22.024,69.41a.437.437,0,0,0-.6.023L19.9,70.988V65.16h8.228ZM3.875,69.909h9.9v9.9h-9.9ZM25.225,82.723A.213.213,0,0,1,25,82.9H7.206a.217.217,0,0,1-.232-.182V80.682h6.877a.8.8,0,0,0,.8-.8V69.831a.8.8,0,0,0-.8-.8H6.973V61.056a.218.218,0,0,1,.232-.182H25a.213.213,0,0,1,.23.182v3.229H19.764a.742.742,0,0,0-.74.742v8.5a.742.742,0,0,0,.74.741h5.461ZM19.9,73.39V72.235l1.862-1.9,1.422,1.241a.438.438,0,0,0,.608-.032l1.986-2.142,2.35,2.81V73.39Z" transform="translate(-3 -60)" fill="none" stroke="#fbb315" stroke-width="0.2" fill-rule="evenodd"/>
      <path id="Path_32396" data-name="Path 32396" d="M23.3,68.759a1.289,1.289,0,1,0-1.288-1.29A1.292,1.292,0,0,0,23.3,68.759Zm0-1.7a.415.415,0,1,1-.414.414A.415.415,0,0,1,23.3,67.055Z" transform="translate(-3 -60)" fill="none" stroke="#fbb315" stroke-width="0.2"/>
      <path id="Path_32397" data-name="Path 32397" d="M9.724,65.413h6.448a.437.437,0,0,0,0-.874H9.724a.437.437,0,0,0,0,.874Z" transform="translate(-3 -60)" fill="none" stroke="#fbb315" stroke-width="0.2"/>
      <path id="Path_32398" data-name="Path 32398" d="M16.609,67.087a.437.437,0,0,0-.437-.437H9.724a.437.437,0,0,0,0,.875h6.448A.437.437,0,0,0,16.609,67.087Z" transform="translate(-3 -60)" fill="none" stroke="#fbb315" stroke-width="0.2"/>
      <path id="Path_32399" data-name="Path 32399" d="M15.735,76.693a.437.437,0,0,0,.437.437h6.447a.437.437,0,0,0,0-.874H16.172A.437.437,0,0,0,15.735,76.693Z" transform="translate(-3 -60)" fill="none" stroke="#fbb315" stroke-width="0.2"/>
      <path id="Path_32400" data-name="Path 32400" d="M22.619,78.367H16.172a.437.437,0,1,0,0,.875h6.447a.437.437,0,0,0,0-.875Z" transform="translate(-3 -60)" fill="none" stroke="#fbb315" stroke-width="0.2"/>
    </g>
  </g>
</svg>
