<svg xmlns="http://www.w3.org/2000/svg" xmlns:xlink="http://www.w3.org/1999/xlink" width="32" height="32" viewBox="0 0 32 32">
  <defs>
    <clipPath id="clip-path">
      <rect x="1" y="1" width="32" height="32" fill="none"/>
    </clipPath>
  </defs>
  <g id="Scroll_Group_251" data-name="Scroll Group 251" transform="translate(-1 -1)" clip-path="url(#clip-path)" style="mix-blend-mode: normal;isolation: isolate">
    <g id="Group_52543" data-name="Group 52543" transform="translate(-1738.886 -576.585)">
      <path id="Path_32950" data-name="Path 32950" d="M5.982,448.78a.2.2,0,0,1,.2-.2H18.424v2.482a1.5,1.5,0,0,0,1.5,1.5h2.482v5.727a.5.5,0,1,0,.993,0v-6.307a1.5,1.5,0,0,0-.439-1.061l-2.9-2.9a1.5,1.5,0,0,0-1.061-.44H6.486a1.5,1.5,0,0,0-1.5,1.5v20.889a1.5,1.5,0,0,0,1.5,1.5H18.135a.5.5,0,0,0,0-1H6.182a.2.2,0,0,1-.2-.2ZM22.2,451.565h-2.78v-2.78Z" transform="translate(1740 134.1)" fill="#fff"/>
      <path id="Path_32951" data-name="Path 32951" d="M25.4,462.916l.835-.835a.2.2,0,0,0,0-.283l-.42-.421a.2.2,0,0,0-.283,0l-.934.934a4.968,4.968,0,0,0-2.08-.7v-1.031h.819a.2.2,0,0,0,.2-.2v-.6a.2.2,0,0,0-.2-.2H20.745a.2.2,0,0,0-.2.2v.6a.2.2,0,0,0,.2.2h.771v1.031a5.015,5.015,0,1,0,3.881,1.3Zm-5.926,6.767a4.008,4.008,0,1,0-1.391-2.315A4.011,4.011,0,0,0,19.47,469.683Z" transform="translate(1740 134.1)" fill="#fff" fill-rule="evenodd"/>
      <path id="Path_32952" data-name="Path 32952" d="M22.549,463.985a.4.4,0,0,0-.4-.4h-.2a.4.4,0,0,0-.4.4v2.2a.4.4,0,0,0,.4.4h.2a.4.4,0,0,0,.4-.4Z" transform="translate(1740 134.1)" fill="#fff"/>
      <path id="Path_32953" data-name="Path 32953" d="M9.983,454.785a.2.2,0,0,0-.2-.2h-.6a.2.2,0,0,0-.2.2v.6a.2.2,0,0,0,.2.2h.6a.2.2,0,0,0,.2-.2Z" transform="translate(1740 134.1)" fill="#fff"/>
      <path id="Path_32954" data-name="Path 32954" d="M17.452,454.985a.4.4,0,0,0-.4-.4h-5.67a.4.4,0,0,0-.4.4v.2a.4.4,0,0,0,.4.4h5.67a.4.4,0,0,0,.4-.4Z" transform="translate(1740 134.1)" fill="#fff"/>
      <path id="Path_32955" data-name="Path 32955" d="M9.983,457.785a.2.2,0,0,0-.2-.2h-.6a.2.2,0,0,0-.2.2v.6a.2.2,0,0,0,.2.2h.6a.2.2,0,0,0,.2-.2Z" transform="translate(1740 134.1)" fill="#fff"/>
      <path id="Path_32956" data-name="Path 32956" d="M17.452,457.985a.4.4,0,0,0-.4-.4h-5.67a.4.4,0,0,0-.4.4v.2a.4.4,0,0,0,.4.4h5.67a.4.4,0,0,0,.4-.4Z" transform="translate(1740 134.1)" fill="#fff"/>
      <path id="Path_32957" data-name="Path 32957" d="M9.983,460.781a.2.2,0,0,0-.2-.2h-.6a.2.2,0,0,0-.2.2v.6a.2.2,0,0,0,.2.2h.6a.2.2,0,0,0,.2-.2Z" transform="translate(1740 134.1)" fill="#fff"/>
      <path id="Path_32958" data-name="Path 32958" d="M17.452,460.981a.4.4,0,0,0-.4-.4h-5.67a.4.4,0,0,0-.4.4v.2a.4.4,0,0,0,.4.4h5.67a.4.4,0,0,0,.4-.4Z" transform="translate(1740 134.1)" fill="#fff"/>
      <path id="Path_32959" data-name="Path 32959" d="M5.982,448.78a.2.2,0,0,1,.2-.2H18.424v2.482a1.5,1.5,0,0,0,1.5,1.5h2.482v5.727a.5.5,0,1,0,.993,0v-6.307a1.5,1.5,0,0,0-.439-1.061l-2.9-2.9a1.5,1.5,0,0,0-1.061-.44H6.486a1.5,1.5,0,0,0-1.5,1.5v20.889a1.5,1.5,0,0,0,1.5,1.5H18.135a.5.5,0,0,0,0-1H6.182a.2.2,0,0,1-.2-.2ZM22.2,451.565h-2.78v-2.78Z" transform="translate(1740 134.1)" fill="none" stroke="#fff" stroke-width="0.2"/>
      <path id="Path_32960" data-name="Path 32960" d="M25.4,462.916l.835-.835a.2.2,0,0,0,0-.283l-.42-.421a.2.2,0,0,0-.283,0l-.934.934a4.968,4.968,0,0,0-2.08-.7v-1.031h.819a.2.2,0,0,0,.2-.2v-.6a.2.2,0,0,0-.2-.2H20.745a.2.2,0,0,0-.2.2v.6a.2.2,0,0,0,.2.2h.771v1.031a5.015,5.015,0,1,0,3.881,1.3Zm-5.926,6.767a4.008,4.008,0,1,0-1.391-2.315A4.011,4.011,0,0,0,19.47,469.683Z" transform="translate(1740 134.1)" fill="none" stroke="#fff" stroke-width="0.2" fill-rule="evenodd"/>
      <path id="Path_32961" data-name="Path 32961" d="M22.549,463.985a.4.4,0,0,0-.4-.4h-.2a.4.4,0,0,0-.4.4v2.2a.4.4,0,0,0,.4.4h.2a.4.4,0,0,0,.4-.4Z" transform="translate(1740 134.1)" fill="none" stroke="#fff" stroke-width="0.2"/>
      <path id="Path_32962" data-name="Path 32962" d="M9.983,454.785a.2.2,0,0,0-.2-.2h-.6a.2.2,0,0,0-.2.2v.6a.2.2,0,0,0,.2.2h.6a.2.2,0,0,0,.2-.2Z" transform="translate(1740 134.1)" fill="none" stroke="#fff" stroke-width="0.2"/>
      <path id="Path_32963" data-name="Path 32963" d="M17.452,454.985a.4.4,0,0,0-.4-.4h-5.67a.4.4,0,0,0-.4.4v.2a.4.4,0,0,0,.4.4h5.67a.4.4,0,0,0,.4-.4Z" transform="translate(1740 134.1)" fill="none" stroke="#fff" stroke-width="0.2"/>
      <path id="Path_32964" data-name="Path 32964" d="M9.983,457.785a.2.2,0,0,0-.2-.2h-.6a.2.2,0,0,0-.2.2v.6a.2.2,0,0,0,.2.2h.6a.2.2,0,0,0,.2-.2Z" transform="translate(1740 134.1)" fill="none" stroke="#fff" stroke-width="0.2"/>
      <path id="Path_32965" data-name="Path 32965" d="M17.452,457.985a.4.4,0,0,0-.4-.4h-5.67a.4.4,0,0,0-.4.4v.2a.4.4,0,0,0,.4.4h5.67a.4.4,0,0,0,.4-.4Z" transform="translate(1740 134.1)" fill="none" stroke="#fff" stroke-width="0.2"/>
      <path id="Path_32966" data-name="Path 32966" d="M9.983,460.781a.2.2,0,0,0-.2-.2h-.6a.2.2,0,0,0-.2.2v.6a.2.2,0,0,0,.2.2h.6a.2.2,0,0,0,.2-.2Z" transform="translate(1740 134.1)" fill="none" stroke="#fff" stroke-width="0.2"/>
      <path id="Path_32967" data-name="Path 32967" d="M17.452,460.981a.4.4,0,0,0-.4-.4h-5.67a.4.4,0,0,0-.4.4v.2a.4.4,0,0,0,.4.4h5.67a.4.4,0,0,0,.4-.4Z" transform="translate(1740 134.1)" fill="none" stroke="#fff" stroke-width="0.2"/>
    </g>
  </g>
</svg>
