<svg xmlns="http://www.w3.org/2000/svg" xmlns:xlink="http://www.w3.org/1999/xlink" width="32" height="32" viewBox="0 0 32 32">
  <defs>
    <clipPath id="clip-path">
      <rect x="1" y="1" width="32" height="32" fill="none"/>
    </clipPath>
  </defs>
  <g id="Scroll_Group_259" data-name="Scroll Group 259" transform="translate(-1 -1)" clip-path="url(#clip-path)" style="mix-blend-mode: normal;isolation: isolate">
    <g id="Group_52551" data-name="Group 52551" transform="translate(-1738.898 -245)">
      <path id="Path_33011" data-name="Path 33011" d="M6.648,116A2.648,2.648,0,0,0,4,118.634v10.008a2.649,2.649,0,0,0,2.651,2.634H8.209v4.909a.545.545,0,0,0,.98.333l4.081-5.242h2.457v4.2a1.772,1.772,0,0,0,1.748,1.782h4.56l2.643,2.582a.546.546,0,0,0,.93-.383v-2.2h.648A1.77,1.77,0,0,0,28,135.479v-6.786a1.772,1.772,0,0,0-1.748-1.781H24.728v-8.278A2.649,2.649,0,0,0,22.077,116Zm0,1.091H22.077a1.523,1.523,0,0,1,.6.111,1.535,1.535,0,0,1,.964,1.43v8.276H17.474a1.772,1.772,0,0,0-1.748,1.78v1.492H13a.529.529,0,0,0-.241.052.539.539,0,0,0-.194.152L9.3,134.581V130.73a.544.544,0,0,0-.546-.545H6.648a1.544,1.544,0,0,1-.6-.111,1.537,1.537,0,0,1-.964-1.432V118.634a1.535,1.535,0,0,1,.964-1.43A1.523,1.523,0,0,1,6.648,117.093Zm10.824,10.913h6.608a.551.551,0,0,0,.222,0h1.952a.676.676,0,0,1,.259.054.665.665,0,0,1,.217.152.649.649,0,0,1,.14.224.66.66,0,0,1,.041.261v6.785a.659.659,0,0,1-.041.261.66.66,0,0,1-.357.375.641.641,0,0,1-.259.054h-1.19a.546.546,0,0,0-.546.546v1.438l-1.867-1.824a.547.547,0,0,0-.384-.16H17.474a.657.657,0,0,1-.259-.054.678.678,0,0,1-.216-.151.661.661,0,0,1-.181-.485v-4.648a.578.578,0,0,0,0-.162V128.7a.66.66,0,0,1,.041-.261.669.669,0,0,1,.14-.224.659.659,0,0,1,.475-.205Z" transform="translate(1740 134.1)" fill="#fff"/>
      <path id="Path_33012" data-name="Path 33012" d="M21.729,129.532a.389.389,0,0,1,.146-.032.38.38,0,0,1,.277.113.374.374,0,0,1,.084.127.383.383,0,0,1,.028.15v3.069a.384.384,0,1,1-.767,0V129.89a.376.376,0,0,1,.027-.147.382.382,0,0,1,.081-.126A.371.371,0,0,1,21.729,129.532Z" transform="translate(1740 134.1)" fill="#fff"/>
      <path id="Path_33013" data-name="Path 33013" d="M21.638,133.819a.385.385,0,0,1,.39-.058.391.391,0,0,1,.125.084.383.383,0,0,1,.048.484.384.384,0,1,1-.562-.51Z" transform="translate(1740 134.1)" fill="#fff"/>
      <path id="Path_33014" data-name="Path 33014" d="M11.952,119.438A2.528,2.528,0,0,1,13.483,119l0,0A2.346,2.346,0,0,1,16,121.122a2.951,2.951,0,0,1-.287,1.366,3.069,3.069,0,0,1-.888,1.1,1.942,1.942,0,0,0-.9,1.8.388.388,0,0,1-.028.157.4.4,0,0,1-.089.134.427.427,0,0,1-.6,0,.4.4,0,0,1-.089-.134.388.388,0,0,1-.028-.157,2.867,2.867,0,0,1,.295-1.329,2.977,2.977,0,0,1,.88-1.062,2.072,2.072,0,0,0,.717-.822,1.974,1.974,0,0,0,.185-1.058,1.535,1.535,0,0,0-1.681-1.323,1.7,1.7,0,0,0-1.017.267,1.594,1.594,0,0,0-.641.8.382.382,0,0,1-.057.156.408.408,0,0,1-.118.121.415.415,0,0,1-.159.064.435.435,0,0,1-.172,0,.412.412,0,0,1-.269-.195.39.39,0,0,1-.05-.159.385.385,0,0,1,.021-.164A2.369,2.369,0,0,1,11.952,119.438Z" transform="translate(1740 134.1)" fill="#fff"/>
      <path id="Path_33015" data-name="Path 33015" d="M13.239,126.291a.424.424,0,0,1,.264-.091.432.432,0,0,1,.159.031.417.417,0,0,1,.135.086.4.4,0,0,1,.12.244.388.388,0,0,1-.068.261.416.416,0,0,1-.225.161.433.433,0,0,1-.28-.013.416.416,0,0,1-.208-.181.387.387,0,0,1-.041-.267A.4.4,0,0,1,13.239,126.291Z" transform="translate(1740 134.1)" fill="#fff"/>
      <path id="Path_33016" data-name="Path 33016" d="M6.648,116A2.648,2.648,0,0,0,4,118.634v10.008a2.649,2.649,0,0,0,2.651,2.634H8.209v4.909a.545.545,0,0,0,.98.333l4.081-5.242h2.457v4.2a1.772,1.772,0,0,0,1.748,1.782h4.56l2.643,2.582a.546.546,0,0,0,.93-.383v-2.2h.648A1.77,1.77,0,0,0,28,135.479v-6.786a1.772,1.772,0,0,0-1.748-1.781H24.728v-8.278A2.649,2.649,0,0,0,22.077,116Zm0,1.091H22.077a1.523,1.523,0,0,1,.6.111,1.535,1.535,0,0,1,.964,1.43v8.276H17.474a1.772,1.772,0,0,0-1.748,1.78v1.492H13a.529.529,0,0,0-.241.052.539.539,0,0,0-.194.152L9.3,134.581V130.73a.544.544,0,0,0-.546-.545H6.648a1.544,1.544,0,0,1-.6-.111,1.537,1.537,0,0,1-.964-1.432V118.634a1.535,1.535,0,0,1,.964-1.43A1.523,1.523,0,0,1,6.648,117.093Zm10.824,10.913h6.608a.551.551,0,0,0,.222,0h1.952a.676.676,0,0,1,.259.054.665.665,0,0,1,.217.152.649.649,0,0,1,.14.224.66.66,0,0,1,.041.261v6.785a.659.659,0,0,1-.041.261.66.66,0,0,1-.357.375.641.641,0,0,1-.259.054h-1.19a.546.546,0,0,0-.546.546v1.438l-1.867-1.824a.547.547,0,0,0-.384-.16H17.474a.657.657,0,0,1-.259-.054.678.678,0,0,1-.216-.151.661.661,0,0,1-.181-.485v-4.648a.578.578,0,0,0,0-.162V128.7a.66.66,0,0,1,.041-.261.669.669,0,0,1,.14-.224.659.659,0,0,1,.475-.205Z" transform="translate(1740 134.1)" fill="none" stroke="#fff" stroke-width="0.2"/>
      <path id="Path_33017" data-name="Path 33017" d="M21.729,129.532a.389.389,0,0,1,.146-.032.38.38,0,0,1,.277.113.374.374,0,0,1,.084.127.383.383,0,0,1,.028.15v3.069a.384.384,0,1,1-.767,0V129.89a.376.376,0,0,1,.027-.147.382.382,0,0,1,.081-.126A.371.371,0,0,1,21.729,129.532Z" transform="translate(1740 134.1)" fill="none" stroke="#fff" stroke-width="0.2"/>
      <path id="Path_33018" data-name="Path 33018" d="M21.638,133.819a.385.385,0,0,1,.39-.058.391.391,0,0,1,.125.084.383.383,0,0,1,.048.484.384.384,0,1,1-.562-.51Z" transform="translate(1740 134.1)" fill="none" stroke="#fff" stroke-width="0.2"/>
      <path id="Path_33019" data-name="Path 33019" d="M11.952,119.438A2.528,2.528,0,0,1,13.483,119l0,0A2.346,2.346,0,0,1,16,121.122a2.951,2.951,0,0,1-.287,1.366,3.069,3.069,0,0,1-.888,1.1,1.942,1.942,0,0,0-.9,1.8.388.388,0,0,1-.028.157.4.4,0,0,1-.089.134.427.427,0,0,1-.6,0,.4.4,0,0,1-.089-.134.388.388,0,0,1-.028-.157,2.867,2.867,0,0,1,.295-1.329,2.977,2.977,0,0,1,.88-1.062,2.072,2.072,0,0,0,.717-.822,1.974,1.974,0,0,0,.185-1.058,1.535,1.535,0,0,0-1.681-1.323,1.7,1.7,0,0,0-1.017.267,1.594,1.594,0,0,0-.641.8.382.382,0,0,1-.057.156.408.408,0,0,1-.118.121.415.415,0,0,1-.159.064.435.435,0,0,1-.172,0,.412.412,0,0,1-.269-.195.39.39,0,0,1-.05-.159.385.385,0,0,1,.021-.164A2.369,2.369,0,0,1,11.952,119.438Z" transform="translate(1740 134.1)" fill="none" stroke="#fff" stroke-width="0.2"/>
      <path id="Path_33020" data-name="Path 33020" d="M13.239,126.291a.424.424,0,0,1,.264-.091.432.432,0,0,1,.159.031.417.417,0,0,1,.135.086.4.4,0,0,1,.12.244.388.388,0,0,1-.068.261.416.416,0,0,1-.225.161.433.433,0,0,1-.28-.013.416.416,0,0,1-.208-.181.387.387,0,0,1-.041-.267A.4.4,0,0,1,13.239,126.291Z" transform="translate(1740 134.1)" fill="none" stroke="#fff" stroke-width="0.2"/>
    </g>
  </g>
</svg>
