<svg xmlns="http://www.w3.org/2000/svg" width="12.155" height="11.225" viewBox="0 0 12.155 11.225">
  <g id="noun-deadline-3697060" transform="translate(-176.863 -120.274)">
    <path id="Path_19466" data-name="Path 19466" d="M187.9,121.2a1.088,1.088,0,0,0-2.124,0H185.3a1.088,1.088,0,0,0-2.124,0H182.7a1.088,1.088,0,0,0-2.124,0H180.1a1.088,1.088,0,0,0-2.124,0,1.054,1.054,0,0,0-1.042,1.053v8.117a1.055,1.055,0,0,0,1.054,1.054h9.9a1.056,1.056,0,0,0,1.055-1.055v-8.116A1.054,1.054,0,0,0,187.9,121.2Zm-1.062-.371a.611.611,0,0,1,.561.37h-1.121A.611.611,0,0,1,186.839,120.829Zm-2.6,0a.611.611,0,0,1,.561.37h-1.122A.611.611,0,0,1,184.24,120.829Zm-2.6,0a.611.611,0,0,1,.561.37H181.08A.611.611,0,0,1,181.641,120.829Zm-2.6,0a.611.611,0,0,1,.561.37h-1.122A.611.611,0,0,1,179.042,120.829Zm-1.05.85H179.6a.611.611,0,0,1-.561.37.24.24,0,0,0,0,.48,1.091,1.091,0,0,0,1.062-.85h2.1a.611.611,0,0,1-.561.37.24.24,0,1,0,0,.48,1.091,1.091,0,0,0,1.062-.85h2.1a.611.611,0,0,1-.561.37.24.24,0,1,0,0,.48,1.091,1.091,0,0,0,1.062-.85h2.1a.611.611,0,0,1-.561.37.24.24,0,1,0,0,.48,1.091,1.091,0,0,0,1.062-.849.574.574,0,0,1,.562.573v.867H177.418v-.867a.574.574,0,0,1,.574-.574Zm9.9,9.264h-9.9a.574.574,0,0,1-.574-.574V123.6h11.045v6.768a.575.575,0,0,1-.575.575Z" fill="#0822d4" stroke="#0822d4" stroke-width="0.15"/>
    <g id="Group_27200" data-name="Group 27200" transform="translate(-1.165 425.34) rotate(-90)">
      <path id="Path_1970" data-name="Path 1970" d="M144.938,1.68,143.361.1a.347.347,0,0,0-.49,0L141.294,1.68a.346.346,0,0,0,.49.49L143.116.838l1.332,1.332a.346.346,0,1,0,.49-.49Z" transform="translate(154.984 180.998)" fill="#0822d4"/>
      <path id="Path_1971" data-name="Path 1971" d="M235.664,0a.346.346,0,0,0-.346.346V5.866a.346.346,0,0,0,.693,0V.346A.346.346,0,0,0,235.664,0Z" transform="translate(62.436 181)" fill="#0822d4"/>
    </g>
  </g>
</svg>
