<svg id="question" xmlns="http://www.w3.org/2000/svg" width="38.898" height="38.898" viewBox="0 0 38.898 38.898">
  <path id="Path_13763" data-name="Path 13763" d="M237.932,364.3a1.632,1.632,0,1,1-1.632-1.632A1.632,1.632,0,0,1,237.932,364.3Zm0,0" transform="translate(-216.851 -335.133)" fill="#fff"/>
  <path id="Path_13764" data-name="Path 13764" d="M19.449,38.9A19.449,19.449,0,1,1,38.9,19.449,19.471,19.471,0,0,1,19.449,38.9Zm0-36.467A17.018,17.018,0,1,0,36.467,19.449,17.037,17.037,0,0,0,19.449,2.431Zm0,0" fill="#fff"/>
  <path id="Path_13765" data-name="Path 13765" d="M172.268,102.876a1.224,1.224,0,0,1-1.224-1.224V100a3.68,3.68,0,0,1,2.451-3.463,5.063,5.063,0,0,0,3.261-4.273,4.488,4.488,0,1,0-8.976,0,1.224,1.224,0,0,1-2.448,0,6.936,6.936,0,1,1,13.872,0,7.51,7.51,0,0,1-4.894,6.582,1.225,1.225,0,0,0-.818,1.155v1.647A1.224,1.224,0,0,1,172.268,102.876Zm0,0" transform="translate(-152.819 -78.886)" fill="#fff"/>
</svg>
