<svg xmlns="http://www.w3.org/2000/svg" width="12.15" height="12.342" viewBox="0 0 12.15 12.342">
  <g id="noun-submit-3282729" transform="translate(-134.99 -64.94)">
    <path id="Path_19489" data-name="Path 19489" d="M146.887,65.015H135.248a.18.18,0,0,0-.13.054.187.187,0,0,0-.053.132V75.727a.187.187,0,0,0,.053.132.18.18,0,0,0,.13.054h4.432a.86.86,0,0,0-.2.795c.134.444.435.5.469.5h0a.037.037,0,0,0,.022,0,.216.216,0,0,0,.086-.021,4.33,4.33,0,0,1,1.457-.477,3.056,3.056,0,0,1,.694.033,1.413,1.413,0,0,0,1.076-.181l.985-.657h2.617a.183.183,0,0,0,.178-.177V65.2a.183.183,0,0,0-.178-.186Zm-11.461.38H146.7V66.87H135.426Zm7.66,10.882a1.066,1.066,0,0,1-.832.114h0a4.007,4.007,0,0,0-.765-.033,4.465,4.465,0,0,0-1.519.482.443.443,0,0,1-.139-.224c-.1-.35.344-.695.661-.838a2.079,2.079,0,0,1,.7-.21c.069-.011.128-.022.192-.038h0a.178.178,0,0,0,.119-.121.172.172,0,0,0-.022-.159l-2.517-3.893a.352.352,0,0,1,.069-.464.3.3,0,0,1,.188-.065.253.253,0,0,1,.059,0,.32.32,0,0,1,.209.143l1.28,1.974a.183.183,0,0,0,.2.076.18.18,0,0,0,.134-.159.361.361,0,0,1,.166-.3.344.344,0,0,1,.333-.038.2.2,0,0,0,.156-.011.222.222,0,0,0,.092-.121.348.348,0,0,1,.156-.229.369.369,0,0,1,.469.043.187.187,0,0,0,.291-.043.456.456,0,0,1,.123-.143.373.373,0,0,1,.511.094l1.146,1.771h0a1.193,1.193,0,0,1,.165.881,1.177,1.177,0,0,1-.494.743Zm.605-4.365c-.011-.016-.02-.032-.027-.043h0a.731.731,0,0,0-.983-.159.774.774,0,0,0-.123.105.731.731,0,0,0-1.007.311.752.752,0,0,0-.485.121.653.653,0,0,0-.192.191l-1.094-1.674a.706.706,0,0,0-.452-.305.664.664,0,0,0-.522.126.717.717,0,0,0-.156.968l.9,1.383h-1.563a.736.736,0,0,1-.525-.221.762.762,0,0,1-.218-.534V69.706a.763.763,0,0,1,.218-.533.738.738,0,0,1,.525-.222h6.155a.739.739,0,0,1,.527.22.764.764,0,0,1,.22.535v2.483a.761.761,0,0,1-.15.453.741.741,0,0,1-.388.27Zm3.012,3.634H144.72a1.566,1.566,0,0,0,.338-.7,1.542,1.542,0,0,0-.214-1.159l-.3-.453h0a1.115,1.115,0,0,0,.506-.415,1.144,1.144,0,0,0,.191-.631V69.706a1.133,1.133,0,0,0-.328-.788,1.1,1.1,0,0,0-.779-.325h-6.147a1.1,1.1,0,0,0-.779.325,1.133,1.133,0,0,0-.328.788v2.483a1.137,1.137,0,0,0,.325.8,1.1,1.1,0,0,0,.782.331H139.8l1.226,1.892a2.732,2.732,0,0,0-.683.226,1.7,1.7,0,0,0-.22.113h-4.69V67.235H146.7Z" fill="#007c10" stroke="#007c10" stroke-width="0.15"/>
    <path id="Path_19490" data-name="Path 19490" d="M517.715,97.632a.2.2,0,0,0-.056.13.193.193,0,0,0,.056.132.185.185,0,1,0,0-.262Z" transform="translate(-371.936 -31.638)" fill="#007c10" stroke="#007c10" stroke-width="0.15"/>
    <path id="Path_19491" data-name="Path 19491" d="M482.246,97.741a.186.186,0,1,1-.186-.186.186.186,0,0,1,.186.186" transform="translate(-337.167 -31.617)" fill="#007c10" stroke="#007c10" stroke-width="0.15"/>
    <path id="Path_19492" data-name="Path 19492" d="M446.1,97.707a.2.2,0,0,0-.054.13.2.2,0,0,0,.054.132.191.191,0,0,0,.132.054.185.185,0,0,0,.13-.054.193.193,0,0,0,.056-.132.188.188,0,0,0-.318-.13Z" transform="translate(-302.302 -31.713)" fill="#007c10" stroke="#007c10" stroke-width="0.15"/>
    <path id="Path_19493" data-name="Path 19493" d="M338.529,222.248a.184.184,0,0,0-.2-.038.2.2,0,0,0-.11.17v.5h-1.815a.186.186,0,0,0-.186.186v1.192a.184.184,0,0,0,.186.186h.343a.183.183,0,0,0,.18-.184.188.188,0,0,0-.186-.186h-.159v-.82H338.4a.184.184,0,0,0,.186-.186V222.8l.939.871-.159.159a.178.178,0,0,0-.011.257.184.184,0,0,0,.262.011l.318-.289a.178.178,0,0,0,.06-.137.189.189,0,0,0-.06-.137Z" transform="translate(-195.584 -152.721)" fill="#007c10" stroke="#007c10" stroke-width="0.15"/>
  </g>
</svg>
